<mxfile host="Electron" modified="2024-06-09T04:25:31.135Z" agent="Mozilla/5.0 (Windows NT 10.0; Win64; x64) AppleWebKit/537.36 (KHTML, like Gecko) draw.io/24.5.1 Chrome/124.0.6367.207 Electron/30.0.6 Safari/537.36" etag="nomDqplChZciCovZWMER" version="24.5.1" type="device">
  <diagram id="C5RBs43oDa-KdzZeNtuy" name="Page-1">
    <mxGraphModel dx="2197" dy="863" grid="0" gridSize="10" guides="1" tooltips="1" connect="1" arrows="1" fold="1" page="1" pageScale="1" pageWidth="827" pageHeight="1169" math="0" shadow="0">
      <root>
        <mxCell id="WIyWlLk6GJQsqaUBKTNV-0" />
        <mxCell id="WIyWlLk6GJQsqaUBKTNV-1" parent="WIyWlLk6GJQsqaUBKTNV-0" />
        <mxCell id="LwYQseKdBTcPkqNtUo91-179" value="Job Application Service" style="rounded=1;absoluteArcSize=1;arcSize=14;whiteSpace=wrap;strokeWidth=2;shadow=1;fontStyle=1" parent="WIyWlLk6GJQsqaUBKTNV-1" vertex="1">
          <mxGeometry x="1310.5" y="782" width="201.5" height="34" as="geometry" />
        </mxCell>
        <mxCell id="LwYQseKdBTcPkqNtUo91-181" value="Company Service" style="rounded=1;absoluteArcSize=1;arcSize=14;whiteSpace=wrap;strokeWidth=2;shadow=1;fontStyle=1" parent="WIyWlLk6GJQsqaUBKTNV-1" vertex="1">
          <mxGeometry x="1311" y="1186.5" width="220" height="35" as="geometry" />
        </mxCell>
        <mxCell id="LwYQseKdBTcPkqNtUo91-182" value="Search Service" style="rounded=1;absoluteArcSize=1;arcSize=14;whiteSpace=wrap;strokeWidth=2;shadow=1;fontStyle=1" parent="WIyWlLk6GJQsqaUBKTNV-1" vertex="1">
          <mxGeometry x="1311" y="1054" width="98.5" height="34" as="geometry" />
        </mxCell>
        <mxCell id="LwYQseKdBTcPkqNtUo91-193" value="" style="sketch=0;outlineConnect=0;fontColor=#232F3E;gradientColor=none;fillColor=#8C4FFF;strokeColor=none;dashed=0;verticalLabelPosition=bottom;verticalAlign=top;align=center;html=1;fontSize=12;fontStyle=1;aspect=fixed;pointerEvents=1;shape=mxgraph.aws4.gateway_load_balancer;shadow=1;" parent="WIyWlLk6GJQsqaUBKTNV-1" vertex="1">
          <mxGeometry x="717" y="966.87" width="77.25" height="77.25" as="geometry" />
        </mxCell>
        <mxCell id="LwYQseKdBTcPkqNtUo91-197" value="User Service" style="rounded=1;absoluteArcSize=1;arcSize=14;whiteSpace=wrap;strokeWidth=2;shadow=1;fontStyle=1" parent="WIyWlLk6GJQsqaUBKTNV-1" vertex="1">
          <mxGeometry x="982.9399999999999" y="786" width="51.08" height="34" as="geometry" />
        </mxCell>
        <mxCell id="LwYQseKdBTcPkqNtUo91-199" value="" style="image;aspect=fixed;html=1;points=[];align=center;fontSize=12;image=img/lib/azure2/databases/Azure_Database_PostgreSQL_Server.svg;rounded=1;shadow=1;fontStyle=1" parent="WIyWlLk6GJQsqaUBKTNV-1" vertex="1">
          <mxGeometry x="1637.59" y="974.63" width="34.13" height="45.5" as="geometry" />
        </mxCell>
        <mxCell id="LwYQseKdBTcPkqNtUo91-233" value="" style="endArrow=classic;html=1;rounded=1;exitX=0.498;exitY=-0.037;exitDx=0;exitDy=0;entryX=0.5;entryY=1;entryDx=0;entryDy=0;exitPerimeter=0;shadow=1;fontStyle=1" parent="WIyWlLk6GJQsqaUBKTNV-1" source="LwYQseKdBTcPkqNtUo91-336" target="LwYQseKdBTcPkqNtUo91-197" edge="1">
          <mxGeometry width="50" height="50" relative="1" as="geometry">
            <mxPoint x="1033" y="631" as="sourcePoint" />
            <mxPoint x="1038" y="609" as="targetPoint" />
          </mxGeometry>
        </mxCell>
        <mxCell id="LwYQseKdBTcPkqNtUo91-238" value="" style="image;aspect=fixed;html=1;points=[];align=center;fontSize=12;image=img/lib/azure2/databases/Azure_Database_PostgreSQL_Server.svg;rounded=1;shadow=1;fontStyle=1" parent="WIyWlLk6GJQsqaUBKTNV-1" vertex="1">
          <mxGeometry x="993.1" y="703.5" width="30.75" height="41" as="geometry" />
        </mxCell>
        <mxCell id="LwYQseKdBTcPkqNtUo91-249" value="" style="image;aspect=fixed;html=1;points=[];align=center;fontSize=12;image=img/lib/azure2/databases/Azure_Database_PostgreSQL_Server.svg;rounded=1;shadow=1;fontStyle=1" parent="WIyWlLk6GJQsqaUBKTNV-1" vertex="1">
          <mxGeometry x="1634.03" y="1178.8799999999999" width="37.69" height="50.25" as="geometry" />
        </mxCell>
        <mxCell id="LwYQseKdBTcPkqNtUo91-255" value="" style="endArrow=classic;html=1;rounded=1;exitX=0.5;exitY=0;exitDx=0;exitDy=0;entryX=0.5;entryY=1;entryDx=0;entryDy=0;shadow=1;fontStyle=1" parent="WIyWlLk6GJQsqaUBKTNV-1" source="LwYQseKdBTcPkqNtUo91-180" target="LwYQseKdBTcPkqNtUo91-179" edge="1">
          <mxGeometry width="50" height="50" relative="1" as="geometry">
            <mxPoint x="1339" y="795" as="sourcePoint" />
            <mxPoint x="1389" y="745" as="targetPoint" />
          </mxGeometry>
        </mxCell>
        <mxCell id="LwYQseKdBTcPkqNtUo91-256" value="Review Service" style="rounded=1;absoluteArcSize=1;arcSize=14;whiteSpace=wrap;strokeWidth=2;shadow=1;fontStyle=1" parent="WIyWlLk6GJQsqaUBKTNV-1" vertex="1">
          <mxGeometry x="1793" y="1116" width="144" height="33.75" as="geometry" />
        </mxCell>
        <mxCell id="LwYQseKdBTcPkqNtUo91-257" value="" style="image;aspect=fixed;html=1;points=[];align=center;fontSize=12;image=img/lib/azure2/databases/Azure_Database_PostgreSQL_Server.svg;rounded=1;shadow=1;fontStyle=1" parent="WIyWlLk6GJQsqaUBKTNV-1" vertex="1">
          <mxGeometry x="2038.75" y="1110.75" width="30.25" height="40.33" as="geometry" />
        </mxCell>
        <mxCell id="LwYQseKdBTcPkqNtUo91-259" value="" style="endArrow=classic;html=1;rounded=1;entryX=0.816;entryY=1.029;entryDx=0;entryDy=0;exitX=0.75;exitY=0;exitDx=0;exitDy=0;entryPerimeter=0;shadow=1;fontStyle=1" parent="WIyWlLk6GJQsqaUBKTNV-1" source="LwYQseKdBTcPkqNtUo91-181" target="LwYQseKdBTcPkqNtUo91-180" edge="1">
          <mxGeometry width="50" height="50" relative="1" as="geometry">
            <mxPoint x="1169" y="886" as="sourcePoint" />
            <mxPoint x="1219" y="836" as="targetPoint" />
          </mxGeometry>
        </mxCell>
        <mxCell id="LwYQseKdBTcPkqNtUo91-180" value="Job Service" style="rounded=1;absoluteArcSize=1;arcSize=14;whiteSpace=wrap;strokeWidth=2;shadow=1;fontStyle=1" parent="WIyWlLk6GJQsqaUBKTNV-1" vertex="1">
          <mxGeometry x="1311" y="922" width="201" height="34" as="geometry" />
        </mxCell>
        <mxCell id="LwYQseKdBTcPkqNtUo91-267" value="" style="endArrow=classic;html=1;rounded=1;exitX=0.5;exitY=1;exitDx=0;exitDy=0;entryX=0.5;entryY=0;entryDx=0;entryDy=0;shadow=1;fontStyle=1" parent="WIyWlLk6GJQsqaUBKTNV-1" source="LwYQseKdBTcPkqNtUo91-182" target="LwYQseKdBTcPkqNtUo91-181" edge="1">
          <mxGeometry width="50" height="50" relative="1" as="geometry">
            <mxPoint x="1381" y="1152" as="sourcePoint" />
            <mxPoint x="1395" y="1326" as="targetPoint" />
          </mxGeometry>
        </mxCell>
        <mxCell id="LwYQseKdBTcPkqNtUo91-268" value="" style="endArrow=classic;html=1;rounded=1;exitX=0.5;exitY=0;exitDx=0;exitDy=0;entryX=0.5;entryY=1;entryDx=0;entryDy=0;shadow=1;fontStyle=1" parent="WIyWlLk6GJQsqaUBKTNV-1" source="LwYQseKdBTcPkqNtUo91-182" target="LwYQseKdBTcPkqNtUo91-180" edge="1">
          <mxGeometry width="50" height="50" relative="1" as="geometry">
            <mxPoint x="1284" y="920" as="sourcePoint" />
            <mxPoint x="1343" y="1012" as="targetPoint" />
          </mxGeometry>
        </mxCell>
        <mxCell id="LwYQseKdBTcPkqNtUo91-270" value="Notification Service" style="rounded=1;absoluteArcSize=1;arcSize=14;whiteSpace=wrap;strokeWidth=2;shadow=1;fontStyle=1" parent="WIyWlLk6GJQsqaUBKTNV-1" vertex="1">
          <mxGeometry x="1793" y="816" width="148" height="34" as="geometry" />
        </mxCell>
        <mxCell id="LwYQseKdBTcPkqNtUo91-288" value="&lt;font style=&quot;font-size: 12px;&quot;&gt;Message Broker&lt;/font&gt;" style="text;html=1;align=center;verticalAlign=middle;whiteSpace=wrap;rounded=0;shadow=1;fontStyle=1" parent="WIyWlLk6GJQsqaUBKTNV-1" vertex="1">
          <mxGeometry x="1790" y="1001.49" width="141" height="30" as="geometry" />
        </mxCell>
        <mxCell id="LwYQseKdBTcPkqNtUo91-292" value="" style="html=1;verticalLabelPosition=bottom;align=center;labelBackgroundColor=#ffffff;verticalAlign=top;strokeWidth=2;strokeColor=#0080F0;shadow=1;dashed=0;shape=mxgraph.ios7.icons.envelope_(message);rounded=1;fontStyle=1" parent="WIyWlLk6GJQsqaUBKTNV-1" vertex="1">
          <mxGeometry x="2038" y="818" width="30" height="30" as="geometry" />
        </mxCell>
        <mxCell id="LwYQseKdBTcPkqNtUo91-293" value="" style="endArrow=classic;html=1;rounded=1;exitX=1;exitY=0.5;exitDx=0;exitDy=0;entryX=0.001;entryY=0.512;entryDx=0;entryDy=0;entryPerimeter=0;shadow=1;fontStyle=1" parent="WIyWlLk6GJQsqaUBKTNV-1" source="LwYQseKdBTcPkqNtUo91-270" target="LwYQseKdBTcPkqNtUo91-292" edge="1">
          <mxGeometry width="50" height="50" relative="1" as="geometry">
            <mxPoint x="1679" y="920" as="sourcePoint" />
            <mxPoint x="1994" y="862" as="targetPoint" />
          </mxGeometry>
        </mxCell>
        <mxCell id="LwYQseKdBTcPkqNtUo91-296" value="" style="strokeWidth=2;html=1;shape=mxgraph.flowchart.annotation_2;align=left;labelPosition=right;pointerEvents=1;rounded=1;strokeColor=#6600CC;shadow=1;fontStyle=1" parent="WIyWlLk6GJQsqaUBKTNV-1" vertex="1">
          <mxGeometry x="798.16" y="800" width="512.84" height="411" as="geometry" />
        </mxCell>
        <mxCell id="LwYQseKdBTcPkqNtUo91-322" value="" style="image;aspect=fixed;html=1;points=[];align=center;fontSize=12;image=img/lib/azure2/databases/Azure_Database_PostgreSQL_Server.svg;rounded=1;shadow=1;fontStyle=1" parent="WIyWlLk6GJQsqaUBKTNV-1" vertex="1">
          <mxGeometry x="1636" y="776.5" width="34.13" height="45.5" as="geometry" />
        </mxCell>
        <mxCell id="LwYQseKdBTcPkqNtUo91-334" value="&lt;font style=&quot;font-size: 14px;&quot;&gt;&lt;span&gt;API Gateway&lt;/span&gt;&lt;/font&gt;" style="text;html=1;align=center;verticalAlign=middle;whiteSpace=wrap;rounded=0;shadow=1;fontStyle=1" parent="WIyWlLk6GJQsqaUBKTNV-1" vertex="1">
          <mxGeometry x="711.63" y="1039" width="88" height="35" as="geometry" />
        </mxCell>
        <mxCell id="LwYQseKdBTcPkqNtUo91-336" value="" style="image;aspect=fixed;html=1;points=[];align=center;fontSize=12;image=img/lib/azure2/security/Multifactor_Authentication.svg;rounded=1;shadow=1;fontStyle=1" parent="WIyWlLk6GJQsqaUBKTNV-1" vertex="1">
          <mxGeometry x="990.96" y="862" width="35.03" height="43" as="geometry" />
        </mxCell>
        <mxCell id="LwYQseKdBTcPkqNtUo91-337" value="&lt;span&gt;Authentication Service&lt;/span&gt;" style="text;html=1;align=center;verticalAlign=middle;whiteSpace=wrap;rounded=0;shadow=1;fontStyle=1" parent="WIyWlLk6GJQsqaUBKTNV-1" vertex="1">
          <mxGeometry x="877.91" y="865" width="97" height="45" as="geometry" />
        </mxCell>
        <mxCell id="LwYQseKdBTcPkqNtUo91-339" value="" style="sketch=0;pointerEvents=1;shadow=1;dashed=0;html=1;strokeColor=none;fillColor=#505050;labelPosition=center;verticalLabelPosition=bottom;verticalAlign=top;outlineConnect=0;align=center;shape=mxgraph.office.communications.remote_move_request;rounded=1;fontStyle=1" parent="WIyWlLk6GJQsqaUBKTNV-1" vertex="1">
          <mxGeometry x="523" y="979.49" width="53" height="52" as="geometry" />
        </mxCell>
        <mxCell id="LwYQseKdBTcPkqNtUo91-340" value="" style="shape=flexArrow;endArrow=classic;startArrow=classic;html=1;rounded=1;shadow=1;fontStyle=1;strokeColor=#66CC00;" parent="WIyWlLk6GJQsqaUBKTNV-1" source="LwYQseKdBTcPkqNtUo91-339" target="LwYQseKdBTcPkqNtUo91-193" edge="1">
          <mxGeometry width="100" height="100" relative="1" as="geometry">
            <mxPoint x="828" y="1066" as="sourcePoint" />
            <mxPoint x="928" y="966" as="targetPoint" />
          </mxGeometry>
        </mxCell>
        <mxCell id="LwYQseKdBTcPkqNtUo91-351" value="" style="dashed=0;outlineConnect=0;html=1;align=center;labelPosition=center;verticalLabelPosition=bottom;verticalAlign=top;shape=mxgraph.weblogos.github;rounded=1;shadow=1;fontStyle=1" parent="WIyWlLk6GJQsqaUBKTNV-1" vertex="1">
          <mxGeometry x="854.75" y="1152" width="45.5" height="39" as="geometry" />
        </mxCell>
        <mxCell id="LwYQseKdBTcPkqNtUo91-353" value="" style="endArrow=none;dashed=1;html=1;rounded=1;strokeColor=#FF3333;shadow=1;fontStyle=1" parent="WIyWlLk6GJQsqaUBKTNV-1" edge="1">
          <mxGeometry width="50" height="50" relative="1" as="geometry">
            <mxPoint x="972" y="1296" as="sourcePoint" />
            <mxPoint x="2137" y="692" as="targetPoint" />
            <Array as="points">
              <mxPoint x="972" y="692" />
            </Array>
          </mxGeometry>
        </mxCell>
        <mxCell id="LwYQseKdBTcPkqNtUo91-354" value="" style="html=1;labelBackgroundColor=#ffffff;startArrow=classic;startFill=1;startSize=6;endArrow=classic;endFill=1;endSize=6;jettySize=auto;orthogonalLoop=1;strokeWidth=1;dashed=1;fontSize=14;rounded=1;exitX=1;exitY=0.5;exitDx=0;exitDy=0;entryX=-0.021;entryY=0.509;entryDx=0;entryDy=0;entryPerimeter=0;shadow=1;fontStyle=1" parent="WIyWlLk6GJQsqaUBKTNV-1" source="LwYQseKdBTcPkqNtUo91-180" target="LwYQseKdBTcPkqNtUo91-199" edge="1">
          <mxGeometry width="60" height="60" relative="1" as="geometry">
            <mxPoint x="1723" y="1080" as="sourcePoint" />
            <mxPoint x="1783" y="1020" as="targetPoint" />
          </mxGeometry>
        </mxCell>
        <mxCell id="LwYQseKdBTcPkqNtUo91-356" value="" style="html=1;labelBackgroundColor=#ffffff;startArrow=classic;startFill=1;startSize=6;endArrow=classic;endFill=1;endSize=6;jettySize=auto;orthogonalLoop=1;strokeWidth=1;dashed=1;fontSize=14;rounded=1;entryX=0.028;entryY=0.531;entryDx=0;entryDy=0;entryPerimeter=0;shadow=1;fontStyle=1" parent="WIyWlLk6GJQsqaUBKTNV-1" target="LwYQseKdBTcPkqNtUo91-322" edge="1">
          <mxGeometry width="60" height="60" relative="1" as="geometry">
            <mxPoint x="1511" y="799" as="sourcePoint" />
            <mxPoint x="1624" y="802" as="targetPoint" />
          </mxGeometry>
        </mxCell>
        <mxCell id="LwYQseKdBTcPkqNtUo91-357" value="" style="html=1;labelBackgroundColor=#ffffff;startArrow=classic;startFill=1;startSize=6;endArrow=classic;endFill=1;endSize=6;jettySize=auto;orthogonalLoop=1;strokeWidth=1;dashed=1;fontSize=14;rounded=1;entryX=1;entryY=0.5;entryDx=0;entryDy=0;shadow=1;fontStyle=1" parent="WIyWlLk6GJQsqaUBKTNV-1" source="LwYQseKdBTcPkqNtUo91-249" target="LwYQseKdBTcPkqNtUo91-181" edge="1">
          <mxGeometry width="60" height="60" relative="1" as="geometry">
            <mxPoint x="1490" y="1252" as="sourcePoint" />
            <mxPoint x="1550" y="1192" as="targetPoint" />
          </mxGeometry>
        </mxCell>
        <mxCell id="LwYQseKdBTcPkqNtUo91-359" value="" style="html=1;labelBackgroundColor=#ffffff;startArrow=none;startFill=0;startSize=6;endArrow=classic;endFill=1;endSize=6;jettySize=auto;orthogonalLoop=1;strokeWidth=1;dashed=1;fontSize=14;rounded=1;entryX=0.08;entryY=1;entryDx=0;entryDy=0;entryPerimeter=0;exitX=1;exitY=0;exitDx=0;exitDy=0;shadow=1;fontStyle=1" parent="WIyWlLk6GJQsqaUBKTNV-1" source="LwYQseKdBTcPkqNtUo91-181" target="LwYQseKdBTcPkqNtUo91-362" edge="1">
          <mxGeometry width="60" height="60" relative="1" as="geometry">
            <mxPoint x="1531" y="1207" as="sourcePoint" />
            <mxPoint x="1767.9999999999995" y="980.75" as="targetPoint" />
          </mxGeometry>
        </mxCell>
        <mxCell id="LwYQseKdBTcPkqNtUo91-360" value="" style="html=1;labelBackgroundColor=#ffffff;startArrow=none;startFill=0;startSize=6;endArrow=classic;endFill=1;endSize=6;jettySize=auto;orthogonalLoop=1;strokeWidth=1;dashed=1;fontSize=14;rounded=1;entryX=0.08;entryY=0;entryDx=0;entryDy=0;entryPerimeter=0;exitX=1;exitY=1;exitDx=0;exitDy=0;shadow=1;fontStyle=1" parent="WIyWlLk6GJQsqaUBKTNV-1" source="LwYQseKdBTcPkqNtUo91-179" target="LwYQseKdBTcPkqNtUo91-362" edge="1">
          <mxGeometry width="60" height="60" relative="1" as="geometry">
            <mxPoint x="1524" y="806" as="sourcePoint" />
            <mxPoint x="1869" y="912.9999999999998" as="targetPoint" />
          </mxGeometry>
        </mxCell>
        <mxCell id="LwYQseKdBTcPkqNtUo91-362" value="" style="strokeWidth=2;html=1;shape=mxgraph.flowchart.direct_data;whiteSpace=wrap;rounded=1;shadow=1;fontStyle=1" parent="WIyWlLk6GJQsqaUBKTNV-1" vertex="1">
          <mxGeometry x="1768" y="951" width="196" height="53.5" as="geometry" />
        </mxCell>
        <mxCell id="LwYQseKdBTcPkqNtUo91-363" value="" style="html=1;verticalLabelPosition=bottom;align=center;labelBackgroundColor=#ffffff;verticalAlign=top;strokeWidth=2;strokeColor=#0080F0;shadow=1;dashed=0;shape=mxgraph.ios7.icons.mail;rounded=1;fontStyle=1" parent="WIyWlLk6GJQsqaUBKTNV-1" vertex="1">
          <mxGeometry x="1784" y="969.5" width="30" height="16.5" as="geometry" />
        </mxCell>
        <mxCell id="LwYQseKdBTcPkqNtUo91-364" value="" style="html=1;verticalLabelPosition=bottom;align=center;labelBackgroundColor=#ffffff;verticalAlign=top;strokeWidth=2;strokeColor=#0080F0;shadow=1;dashed=0;shape=mxgraph.ios7.icons.mail;rounded=1;fontStyle=1" parent="WIyWlLk6GJQsqaUBKTNV-1" vertex="1">
          <mxGeometry x="1839" y="969.5" width="30" height="16.5" as="geometry" />
        </mxCell>
        <mxCell id="LwYQseKdBTcPkqNtUo91-365" value="" style="html=1;verticalLabelPosition=bottom;align=center;labelBackgroundColor=#ffffff;verticalAlign=top;strokeWidth=2;strokeColor=#0080F0;shadow=1;dashed=0;shape=mxgraph.ios7.icons.mail;rounded=1;fontStyle=1" parent="WIyWlLk6GJQsqaUBKTNV-1" vertex="1">
          <mxGeometry x="1894" y="969.5" width="28" height="16.5" as="geometry" />
        </mxCell>
        <mxCell id="LwYQseKdBTcPkqNtUo91-367" value="" style="endArrow=classic;html=1;rounded=1;entryX=0.5;entryY=1;entryDx=0;entryDy=0;exitX=0.5;exitY=0;exitDx=0;exitDy=0;exitPerimeter=0;shadow=1;fontStyle=1" parent="WIyWlLk6GJQsqaUBKTNV-1" source="LwYQseKdBTcPkqNtUo91-362" target="LwYQseKdBTcPkqNtUo91-270" edge="1">
          <mxGeometry relative="1" as="geometry">
            <mxPoint x="1677" y="881" as="sourcePoint" />
            <mxPoint x="1777" y="881" as="targetPoint" />
          </mxGeometry>
        </mxCell>
        <mxCell id="LwYQseKdBTcPkqNtUo91-368" value="" style="shape=message;html=1;outlineConnect=0;rounded=1;shadow=1;fontStyle=1" parent="LwYQseKdBTcPkqNtUo91-367" vertex="1">
          <mxGeometry width="20" height="14" relative="1" as="geometry">
            <mxPoint x="-10" y="-7" as="offset" />
          </mxGeometry>
        </mxCell>
        <mxCell id="LwYQseKdBTcPkqNtUo91-370" value="" style="endArrow=classic;html=1;rounded=1;exitX=0.5;exitY=1;exitDx=0;exitDy=0;entryX=0.5;entryY=0;entryDx=0;entryDy=0;exitPerimeter=0;shadow=1;fontStyle=1" parent="WIyWlLk6GJQsqaUBKTNV-1" source="LwYQseKdBTcPkqNtUo91-362" target="LwYQseKdBTcPkqNtUo91-256" edge="1">
          <mxGeometry relative="1" as="geometry">
            <mxPoint x="1608" y="1205" as="sourcePoint" />
            <mxPoint x="1708" y="1205" as="targetPoint" />
          </mxGeometry>
        </mxCell>
        <mxCell id="LwYQseKdBTcPkqNtUo91-371" value="" style="shape=message;html=1;outlineConnect=0;rounded=1;shadow=1;fontStyle=1" parent="LwYQseKdBTcPkqNtUo91-370" vertex="1">
          <mxGeometry width="20" height="14" relative="1" as="geometry">
            <mxPoint x="-10" y="-7" as="offset" />
          </mxGeometry>
        </mxCell>
        <mxCell id="LwYQseKdBTcPkqNtUo91-373" value="" style="html=1;labelBackgroundColor=#ffffff;startArrow=classic;startFill=1;startSize=6;endArrow=classic;endFill=1;endSize=6;jettySize=auto;orthogonalLoop=1;strokeWidth=1;dashed=1;fontSize=14;rounded=1;entryX=0.009;entryY=0.545;entryDx=0;entryDy=0;entryPerimeter=0;exitX=1;exitY=0.5;exitDx=0;exitDy=0;shadow=1;fontStyle=1" parent="WIyWlLk6GJQsqaUBKTNV-1" source="LwYQseKdBTcPkqNtUo91-256" target="LwYQseKdBTcPkqNtUo91-257" edge="1">
          <mxGeometry width="60" height="60" relative="1" as="geometry">
            <mxPoint x="1590" y="933" as="sourcePoint" />
            <mxPoint x="1650" y="873" as="targetPoint" />
          </mxGeometry>
        </mxCell>
        <mxCell id="LwYQseKdBTcPkqNtUo91-374" value="" style="html=1;labelBackgroundColor=#ffffff;endArrow=none;endFill=0;jettySize=auto;orthogonalLoop=1;strokeWidth=1;dashed=1;fontSize=14;rounded=1;strokeColor=#FF3333;shadow=1;fontStyle=1" parent="WIyWlLk6GJQsqaUBKTNV-1" edge="1">
          <mxGeometry width="60" height="60" relative="1" as="geometry">
            <mxPoint x="971" y="1297" as="sourcePoint" />
            <mxPoint x="2135" y="694" as="targetPoint" />
            <Array as="points">
              <mxPoint x="2138" y="1297.25" />
              <mxPoint x="2136" y="964.25" />
            </Array>
          </mxGeometry>
        </mxCell>
        <mxCell id="LwYQseKdBTcPkqNtUo91-378" value="" style="html=1;labelBackgroundColor=#ffffff;startArrow=classic;startFill=1;startSize=6;endArrow=classic;endFill=1;endSize=6;jettySize=auto;orthogonalLoop=1;strokeWidth=1;dashed=1;fontSize=14;rounded=1;entryX=0.5;entryY=0;entryDx=0;entryDy=0;shadow=1;fontStyle=1;exitX=0.532;exitY=0.976;exitDx=0;exitDy=0;exitPerimeter=0;" parent="WIyWlLk6GJQsqaUBKTNV-1" source="LwYQseKdBTcPkqNtUo91-238" target="LwYQseKdBTcPkqNtUo91-197" edge="1">
          <mxGeometry width="60" height="60" relative="1" as="geometry">
            <mxPoint x="1117" y="967" as="sourcePoint" />
            <mxPoint x="1177" y="907" as="targetPoint" />
          </mxGeometry>
        </mxCell>
        <mxCell id="LwYQseKdBTcPkqNtUo91-381" value="" style="endArrow=none;html=1;rounded=1;entryX=0;entryY=0.5;entryDx=0;entryDy=0;shadow=1;strokeColor=#6600CC;fontStyle=1;exitX=0.495;exitY=0.655;exitDx=0;exitDy=0;exitPerimeter=0;" parent="WIyWlLk6GJQsqaUBKTNV-1" source="LwYQseKdBTcPkqNtUo91-296" target="LwYQseKdBTcPkqNtUo91-182" edge="1">
          <mxGeometry width="50" height="50" relative="1" as="geometry">
            <mxPoint x="1162" y="1078" as="sourcePoint" />
            <mxPoint x="1417" y="946" as="targetPoint" />
          </mxGeometry>
        </mxCell>
        <mxCell id="LwYQseKdBTcPkqNtUo91-380" value="" style="endArrow=none;html=1;rounded=1;entryX=0.997;entryY=0.34;entryDx=0;entryDy=0;entryPerimeter=0;exitX=0.502;exitY=0.337;exitDx=0;exitDy=0;exitPerimeter=0;strokeColor=#6600CC;fillColor=#7F00FF;shadow=1;fontStyle=1" parent="WIyWlLk6GJQsqaUBKTNV-1" source="LwYQseKdBTcPkqNtUo91-296" target="LwYQseKdBTcPkqNtUo91-296" edge="1">
          <mxGeometry width="50" height="50" relative="1" as="geometry">
            <mxPoint x="1802" y="996" as="sourcePoint" />
            <mxPoint x="1852" y="946" as="targetPoint" />
          </mxGeometry>
        </mxCell>
        <mxCell id="LwYQseKdBTcPkqNtUo91-383" value="/&lt;font style=&quot;font-size: 14px;&quot;&gt;&lt;span&gt;apply&lt;/span&gt;&lt;/font&gt;" style="text;html=1;align=center;verticalAlign=middle;whiteSpace=wrap;rounded=0;fontStyle=1;shadow=1;" parent="WIyWlLk6GJQsqaUBKTNV-1" vertex="1">
          <mxGeometry x="1166" y="770" width="60" height="30" as="geometry" />
        </mxCell>
        <mxCell id="LwYQseKdBTcPkqNtUo91-384" value="&lt;font style=&quot;font-size: 14px;&quot;&gt;&lt;span&gt;/jobs&lt;/span&gt;&lt;/font&gt;" style="text;html=1;align=center;verticalAlign=middle;whiteSpace=wrap;rounded=0;fontStyle=1;shadow=1;" parent="WIyWlLk6GJQsqaUBKTNV-1" vertex="1">
          <mxGeometry x="1166" y="909" width="60" height="30" as="geometry" />
        </mxCell>
        <mxCell id="LwYQseKdBTcPkqNtUo91-385" value="&lt;font style=&quot;font-size: 14px;&quot;&gt;&lt;span&gt;/search&lt;/span&gt;&lt;/font&gt;" style="text;html=1;align=center;verticalAlign=middle;whiteSpace=wrap;rounded=0;fontStyle=1;shadow=1;" parent="WIyWlLk6GJQsqaUBKTNV-1" vertex="1">
          <mxGeometry x="1163" y="1041" width="60" height="30" as="geometry" />
        </mxCell>
        <mxCell id="LwYQseKdBTcPkqNtUo91-386" value="&lt;font style=&quot;font-size: 14px;&quot;&gt;&lt;span&gt;/companies&lt;/span&gt;&lt;/font&gt;" style="text;html=1;align=center;verticalAlign=middle;whiteSpace=wrap;rounded=0;fontStyle=1;shadow=1;" parent="WIyWlLk6GJQsqaUBKTNV-1" vertex="1">
          <mxGeometry x="1155.5" y="1183.5" width="81" height="30" as="geometry" />
        </mxCell>
        <mxCell id="LwYQseKdBTcPkqNtUo91-387" value="&lt;font style=&quot;font-size: 14px;&quot;&gt;&lt;span&gt;/auth&lt;/span&gt;&lt;/font&gt;" style="text;html=1;align=center;verticalAlign=middle;whiteSpace=wrap;rounded=0;rotation=-25;fontStyle=1;shadow=1;" parent="WIyWlLk6GJQsqaUBKTNV-1" vertex="1">
          <mxGeometry x="858" y="926" width="60" height="30" as="geometry" />
        </mxCell>
        <mxCell id="LwYQseKdBTcPkqNtUo91-390" value="" style="sketch=0;outlineConnect=0;fontColor=#232F3E;gradientColor=none;fillColor=#ED7100;strokeColor=none;dashed=0;verticalLabelPosition=bottom;verticalAlign=top;align=center;html=1;fontSize=12;fontStyle=1;aspect=fixed;pointerEvents=1;shape=mxgraph.aws4.registry;rounded=1;shadow=1;" parent="WIyWlLk6GJQsqaUBKTNV-1" vertex="1">
          <mxGeometry x="856" y="1041" width="43" height="43" as="geometry" />
        </mxCell>
        <mxCell id="LwYQseKdBTcPkqNtUo91-391" value="&lt;font style=&quot;font-size: 14px;&quot;&gt;&lt;span&gt;Eureka Server&lt;/span&gt;&lt;/font&gt;" style="text;html=1;align=center;verticalAlign=middle;whiteSpace=wrap;rounded=0;shadow=1;fontStyle=1" parent="WIyWlLk6GJQsqaUBKTNV-1" vertex="1">
          <mxGeometry x="767" y="1074" width="100.88" height="49" as="geometry" />
        </mxCell>
        <mxCell id="LwYQseKdBTcPkqNtUo91-393" value="" style="html=1;labelBackgroundColor=#ffffff;startArrow=none;startFill=0;startSize=6;endArrow=classic;endFill=1;endSize=6;jettySize=auto;orthogonalLoop=1;strokeWidth=1;dashed=1;fontSize=14;rounded=1;strokeColor=#FF0000;fontStyle=1;shadow=1;" parent="WIyWlLk6GJQsqaUBKTNV-1" target="LwYQseKdBTcPkqNtUo91-390" edge="1">
          <mxGeometry width="60" height="60" relative="1" as="geometry">
            <mxPoint x="970" y="1063" as="sourcePoint" />
            <mxPoint x="1009" y="1234" as="targetPoint" />
          </mxGeometry>
        </mxCell>
        <mxCell id="LwYQseKdBTcPkqNtUo91-396" value="" style="html=1;labelBackgroundColor=#ffffff;startArrow=none;startFill=0;startSize=6;endArrow=classic;endFill=1;endSize=6;jettySize=auto;orthogonalLoop=1;strokeWidth=1;dashed=1;fontSize=14;rounded=1;strokeColor=#FF0000;fontStyle=1;shadow=1;" parent="WIyWlLk6GJQsqaUBKTNV-1" source="LwYQseKdBTcPkqNtUo91-351" edge="1">
          <mxGeometry width="60" height="60" relative="1" as="geometry">
            <mxPoint x="1102" y="1207" as="sourcePoint" />
            <mxPoint x="971" y="1172" as="targetPoint" />
          </mxGeometry>
        </mxCell>
        <mxCell id="LwYQseKdBTcPkqNtUo91-397" value="&lt;font style=&quot;font-size: 14px;&quot;&gt;&lt;span&gt;Config Server&lt;/span&gt;&lt;/font&gt;" style="text;html=1;align=center;verticalAlign=middle;whiteSpace=wrap;rounded=0;fontStyle=1;shadow=1;" parent="WIyWlLk6GJQsqaUBKTNV-1" vertex="1">
          <mxGeometry x="767.0000000000001" y="1183.5" width="94" height="30" as="geometry" />
        </mxCell>
        <mxCell id="LwYQseKdBTcPkqNtUo91-398" value="" style="html=1;labelBackgroundColor=#ffffff;startArrow=none;startFill=0;startSize=6;endArrow=classic;endFill=1;endSize=6;jettySize=auto;orthogonalLoop=1;strokeWidth=1;dashed=1;fontSize=14;rounded=1;strokeColor=#FF0000;fontStyle=1;shadow=1;" parent="WIyWlLk6GJQsqaUBKTNV-1" source="LwYQseKdBTcPkqNtUo91-351" target="LwYQseKdBTcPkqNtUo91-390" edge="1">
          <mxGeometry width="60" height="60" relative="1" as="geometry">
            <mxPoint x="1020" y="1290" as="sourcePoint" />
            <mxPoint x="1112" y="1290" as="targetPoint" />
          </mxGeometry>
        </mxCell>
        <mxCell id="LwYQseKdBTcPkqNtUo91-399" value="&lt;span&gt;Notification sent to Job Applicant&lt;/span&gt;" style="text;html=1;align=center;verticalAlign=middle;whiteSpace=wrap;rounded=0;fontStyle=1;shadow=1;" parent="WIyWlLk6GJQsqaUBKTNV-1" vertex="1">
          <mxGeometry x="1994.1599999999999" y="848" width="117.69" height="48" as="geometry" />
        </mxCell>
        <mxCell id="LwYQseKdBTcPkqNtUo91-403" value="Async&lt;div&gt;Job Applied Event&lt;/div&gt;" style="text;html=1;align=center;verticalAlign=middle;whiteSpace=wrap;rounded=0;rotation=30;fontStyle=1;shadow=1;" parent="WIyWlLk6GJQsqaUBKTNV-1" vertex="1">
          <mxGeometry x="1625" y="853.78" width="123" height="42.22" as="geometry" />
        </mxCell>
        <mxCell id="LwYQseKdBTcPkqNtUo91-404" value="Async&amp;nbsp;&lt;div&gt;Company DDL / DML&amp;nbsp;&lt;span style=&quot;background-color: initial;&quot;&gt;Event&lt;/span&gt;&lt;/div&gt;" style="text;html=1;align=center;verticalAlign=middle;whiteSpace=wrap;rounded=0;rotation=-40;fontStyle=1;shadow=1;" parent="WIyWlLk6GJQsqaUBKTNV-1" vertex="1">
          <mxGeometry x="1613.16" y="1063" width="186" height="50" as="geometry" />
        </mxCell>
        <mxCell id="xZJH7P0rAm1Hk3XQs9o4-0" value="&lt;span&gt;&lt;font style=&quot;font-size: 24px;&quot;&gt;Private Network&lt;/font&gt;&lt;/span&gt;" style="text;html=1;align=center;verticalAlign=middle;whiteSpace=wrap;rounded=0;fontStyle=1;shadow=1;" parent="WIyWlLk6GJQsqaUBKTNV-1" vertex="1">
          <mxGeometry x="1931.5" y="689" width="192.5" height="52" as="geometry" />
        </mxCell>
        <mxCell id="xZJH7P0rAm1Hk3XQs9o4-5" value="" style="endArrow=classic;html=1;rounded=0;entryX=0.372;entryY=1.002;entryDx=0;entryDy=0;entryPerimeter=0;strokeColor=#6600CC;fontStyle=1;shadow=1;exitX=0.002;exitY=0.466;exitDx=0;exitDy=0;exitPerimeter=0;" parent="WIyWlLk6GJQsqaUBKTNV-1" source="LwYQseKdBTcPkqNtUo91-296" target="LwYQseKdBTcPkqNtUo91-336" edge="1">
          <mxGeometry width="50" height="50" relative="1" as="geometry">
            <mxPoint x="791" y="978" as="sourcePoint" />
            <mxPoint x="1016" y="909" as="targetPoint" />
          </mxGeometry>
        </mxCell>
        <mxCell id="xZJH7P0rAm1Hk3XQs9o4-7" value="" style="endArrow=classic;html=1;rounded=0;strokeColor=#6600CC;fontStyle=1;shadow=1;exitX=0.003;exitY=0.538;exitDx=0;exitDy=0;exitPerimeter=0;" parent="WIyWlLk6GJQsqaUBKTNV-1" source="LwYQseKdBTcPkqNtUo91-296" target="LwYQseKdBTcPkqNtUo91-390" edge="1">
          <mxGeometry width="50" height="50" relative="1" as="geometry">
            <mxPoint x="808" y="1000" as="sourcePoint" />
            <mxPoint x="982" y="916" as="targetPoint" />
          </mxGeometry>
        </mxCell>
        <mxCell id="xZJH7P0rAm1Hk3XQs9o4-8" value="&lt;span&gt;Request&lt;/span&gt;" style="text;html=1;align=center;verticalAlign=middle;resizable=0;points=[];autosize=1;strokeColor=none;fillColor=none;fontStyle=1;shadow=1;" parent="WIyWlLk6GJQsqaUBKTNV-1" vertex="1">
          <mxGeometry x="613" y="966.75" width="63" height="26" as="geometry" />
        </mxCell>
        <mxCell id="xZJH7P0rAm1Hk3XQs9o4-9" value="&lt;span&gt;Response&lt;/span&gt;" style="text;html=1;align=center;verticalAlign=middle;resizable=0;points=[];autosize=1;strokeColor=none;fillColor=none;fontStyle=1;shadow=1;" parent="WIyWlLk6GJQsqaUBKTNV-1" vertex="1">
          <mxGeometry x="609" y="1020.13" width="72" height="26" as="geometry" />
        </mxCell>
        <mxCell id="xZJH7P0rAm1Hk3XQs9o4-11" value="" style="html=1;labelBackgroundColor=#ffffff;startArrow=none;startFill=0;startSize=6;endArrow=classic;endFill=1;endSize=6;jettySize=auto;orthogonalLoop=1;strokeWidth=1;dashed=1;fontSize=14;rounded=1;strokeColor=#FF0000;fontStyle=1;shadow=1;entryX=0.965;entryY=0.519;entryDx=0;entryDy=0;entryPerimeter=0;" parent="WIyWlLk6GJQsqaUBKTNV-1" target="sIco7kpjjEomRQ9Vrxqd-1" edge="1">
          <mxGeometry width="60" height="60" relative="1" as="geometry">
            <mxPoint x="969" y="1267" as="sourcePoint" />
            <mxPoint x="971" y="1270" as="targetPoint" />
          </mxGeometry>
        </mxCell>
        <mxCell id="xZJH7P0rAm1Hk3XQs9o4-13" value="&lt;span&gt;&lt;font style=&quot;font-size: 24px;&quot;&gt;Public Network&lt;/font&gt;&lt;/span&gt;" style="text;html=1;align=center;verticalAlign=middle;whiteSpace=wrap;rounded=0;fontStyle=1;shadow=1;" parent="WIyWlLk6GJQsqaUBKTNV-1" vertex="1">
          <mxGeometry x="1944" y="646" width="180" height="26" as="geometry" />
        </mxCell>
        <mxCell id="sIco7kpjjEomRQ9Vrxqd-0" value="" style="shape=image;imageAspect=0;aspect=fixed;verticalLabelPosition=bottom;verticalAlign=top;image=data:image/png,iVBORw0KGgoAAAANSUhEUgAAAOEAAADhCAMAAAAJbSJIAAAAhFBMVEX///8AAABhYWHNzc3T09PCwsJKSkpycnL8/Pz19fXg4OC0tLTj4+Pa2tp/f3/n5+fv7++6urrGxsZoaGg4ODgnJycXFxeXl5eKiop3d3c+Pj4vLy+fn5+urq5PT0+oqKhZWVkeHh6FhYWQkJCbm5tFRUULCws6OjohISEpKSkYGBgyMjKhW/z/AAAIk0lEQVR4nO2caXuyOhCGiYJsoqitS91QW63t//9/h5CFCQFJ+2IRz9wfepUIYx5IJpNJ0LIQBEEQBEEQBEEQBEEQBEEQBEEQBEEQBEEQBEEQBEEQBEEQBEEQBEEQBEGQ/w3O6IOQz9570HZF7sQ7kbz1267MHQjmBDJruz6NMyUFrn7bVWqWqCgwldh2nRrF0wU+WUMd5bLcN/n/tO1qNUfMJZ0zTbHLD1/arldzbJiiV089JlGrtWqSDyYolgU9VrBosU7NwvSs8oIhK0naqlDT8G7ogCI2/L+2VqWGCfRex9rtubUqNcyYKYSx6DorObRWpabR/IrPSt7aq1LDsCdG8oIFKxi1V6WGOTFBrjgWUapz66JOMVQjUUeEbcpJ/SON5w6z0Cux8PD0hKZRONl8i4MTOGPylYfkxw5q9EkZ+edeon7SwRSAUyLQlp/68+JnYYt1/SVbTSAQoQnspBMqPkUwOezpAmGY3gD+n6RMYiikBwTkKZzecvQp/k+Uax2K7J2wvrVeydtkc+5k6+mGmma8fM0qf1gOYfGFa2KutS+aLEyq9hXRAR1Yx2eyo2bWtMRP797Omu7Sf4kfn8/Ai03k/aNxsZ39d8dYin2dGsoEhZ7nsdugnMUU9viRSzwa7I5PqY6Q+l2PrOL46DvfmcIxiSIZ5e9JicLB/RSG2ReslDI+4T/KAh6oz6sUxmT3Ts9KhaVOKkkf3HKXfeDQZ0MV5hcOyQMo5N0T9K2ZVqIoHI0CQhXuLzvLOVtkaK0n2QfMmfnZHeIXrh5B4UXrGmFeIw5U6JEwIpNU4XFvWd/HKHGtCxt5nG/P96lCX/pOLu7iXltUeM3KYPKUO9c8IlAULsjb5eXVytqiTT4uH8TbfGWfODR5p7RSnl1IG7U1nNnWnylUPc2L9qWTmwqzctLPdLzRuu+W1mC+Dc++Q/0qVbjZvMPrQL+8r8LgtBaN5h0Mh7wfgnGNdx5wDlBoZy4p3PvpkOG7tDVG6R3b9pK9FdHxxvX80WjEmwnrmZe/UWgPCMSVfoT70o08U4Tp4GJ1tDCHKUxALe6ncEWKbHklxLRJjvA8u+qCq/9NIbjubgr9V00gcy7jXX7MXH7MBcJu+PgKy6eHJLGWyvH1tN3I4FWJrB5e4Sf5Ocpa/6MrdGW1V6FtTxffuh6NvWLhwRXaotYyL9M/KGo+J6TIUjXx4ArFkijM6sO5Yvq44oIn2hdMPLZCkRxVN9HI1NOKDfULoC8ZF208tkLuL7eFYq5mIo69LRO9XpbsJ/qtwumfKGSOVNt5sS30TYofV2RnCgodxkTERfYxC25n9HZ5k+wzWhw4LNk+mMqzCwq5obDMkJUZkk+gGr+8Z4mHaHY7i3N8Bg+voxfZvs+O+D76wYYo6LMnEWjxNaMo30RB21Zu6Da8G2pdS/TEnysUAnm7B5vJCJ2Z5Wb3yie6QiGQ3331hrjGCqdVJy5/qVAI5O1nRFR2xgqFQJ64PVYbuo1TdeLidwqFQJ64KqiQ1CsUAif1hm7T8DMUAnlCWWaarqcwlPNPYtAPhUB+p8birFdqCERd9ZVrth8KgSKnKyYiXHD/DCs2nLJ2MuhPUxzFl67UCy0xx+GC7Tk0dJtGfakQKGZWIiCUg4x3UCpWOR7OCncq0gxdjRU2OB7OxI2X8d+qcJy3NnZUEdMkwj3JOeiocJzvVDNQeDumkcUGMY0gKBhRcndK965QKMjvDGvdMK0gluYNFNbEpTwINYlLOfmix1h7hLLMRGFeo7jEUGyssHZusTSdW2h3qtRPn00VBlqxaujLWGHt/JDoY1Hp/JAU68vmlQVn1TNVqBm6VBuq4Tdz/I1iQWml+c4jlmDeqd82M1UIvNykzJBrrrCpPI1ALh//o8J8KZ0p/Pi9wspcm9o8lVyb0mRUhXLUYv2wsP/vYq5QxiGlhj5+oLA6X+qDTHEhXwqXopnCV+GgPnkxX1xVF+lJvcK5GPG/+FrCUL1zuiEDKnPegcj2G+W8eYI8USqhDLVKpF+hcCc7zk4xpLhwxVFHk/q1/6hq3YIHN2brFiJk4U4i4Y8EoOwSrM7TiJCFO23WOJRm+pIbCs6j/dJgAwxYe9qA9sA9reHak0g8Mm/Dj8By3Um5PTcyUWIHyAQaAu1mkRuKiR+kj9DoZa2y9cOB/FLBzfVDMVFlToIfyE0AQmC9QrmiMISGZNUWwJBrW2/ht+WZbNpuYg2Yd9M5MJhGszTP5E/ykbZeoZgwnT1wV8mVGbpAQ6ljG9A/Hwb7jsoUsmdYso5foVC8YZTAamoYKBSGmLdJqg0daCXTR90z2KdVppD3Q30vRvkacB7KZ07CO5NSDBTKnTzM0KHS0MC3dk7afk023pcp5KO+tp8G2lOziWIXYObc/Ktao625Qmko8zb+WjUUSkPTnnWyTvFGmctWULYnSgwA9XuiEnEoZuhsCIXZtvWwZMRPckNMoQzPVpWGrgEwdBpE/ngFzFRRsa9NDJQ39rVFMzclD7ldBm8MQ1HRl/RheNmp3HHZheusICvIZy6rckPfNMMIDEWjnlv/pl3l3sQ8Vqzcm1hL4IThtIkNm/9gqLi/FEQIM1JCo/tL/wJ9kguiyYMusHN7hPVVXjh58DWJxbzVwxOXCIShaPf36ksBle9bOCAP0MH3LUTwUHxnRlFi83dmtt3TJ+cD2ntPBgusHYG3wLxgUZDcdfikXX//8GleVw90B6m9kdhtKt8DfhqFPFcHQ1cWXs8rL+kaTKH+Pv4dd5T/MTwxp/2mgsmUshvwwUH7XQz75lVdouK3TdZt16tB8pz+k/4+TflvDP18q+EjY+sCP+uv6hTab319PtlvfdH1G0XgU/0MluDZf3OP8uy/m4ggCIIgCIIgCIIgCIIgCIIgCIIgCIIgCIIgCIIgCIIgCIIgCIIgCIIgCIJ0mP8AvdRk0Zd6tPcAAAAASUVORK5CYII=;fontStyle=1" parent="WIyWlLk6GJQsqaUBKTNV-1" vertex="1">
          <mxGeometry x="1964" y="937.38" width="82.75" height="82.75" as="geometry" />
        </mxCell>
        <mxCell id="sIco7kpjjEomRQ9Vrxqd-1" value="" style="shape=image;imageAspect=0;aspect=fixed;verticalLabelPosition=bottom;verticalAlign=top;image=data:image/png,iVBORw0KGgoAAAANSUhEUgAAAcwAAAHMCAYAAABY25iGAABHgklEQVR4nOzdCZgcVbk+8HearZulhxJEZjjF0i5ockXkglSB0p0gAWSHROTKIojsW7G4a1H6B5HFRhAUEFkEBBIFQQFRkxlQq/Wq4JJcF2yXKmYQlOO0YDcQKv+nSaEQsvR0n+7T1fX+nmee516S+eozmfRby6nvrL1s2TIQERHR6mV0N0BERJQEDEwiIqIWMDCJiIhawMAkIiJqAQOTiIioBQxMIiKiFjAwiYiIWsDAJCIiagEDk4iIqAUMTCIiohYwMImIiFrAwCQiImoBA5OIiKgFDEwiIqIWMDCJiIhawMAkIiJqAQOTiIioBQxMIiKiFjAwiYiIWsDAJCIiasHauhvoB0NDQ7pbIHqZyLHfmyn7N+vug2hFy5Yt092CNrzCJOozriW2BHBl5Ngn6+6FiP6DgUnUZ1zb/DyAPIAvLJw740Dd/RDRcgxMoj4SOfa7APw7JEvm8Dl6OyKiFzEwifqEa4nXArhphf9sR479oaLIa+qKiF7EwCTqE65tngrAWOE/DwG4oCTy22tqi4hiDEyiPuBa4s0Ajlzlr9smb80SaTaU5iXCL+JrJaSTa4n1XNv8M4DXrOG3Wpmy/+MetUW0UmnODF5hEmlWFPmTWgjLpjtdS4getEREK8ErTF5hkkaRYzdPWgMAoy1+y/mZsv+xLrdFtEppzgxeYRJpUhT5dQDMn0ZYNh3rWqLQxbaIaBUYmESalER+PwAHT/PbNnNt817XEmt1qS0iWgUGJpEGzcBzbfOsNr/9DUWRP0ZxS0S0BgxMIg1c2/wQgF3a/X5OACLqPQYmUY+5ltgJwLkdlnl95NhXF0We/4aJeoT/2Ih6zLXNMwGso6DUB0oiv7uCOkTUAgYmUQ+tOFy9U65tnu1afDWTqBcYmEQ94lpiMwDfBJBVWHaOa5tHKaxHRKvAwCTqkfhW7NpdKH2Fa4kZXahLRC/BST+c9EM9EDn2q+KJPut36RDXZMr+cV2qTfRvac4MXmESdVlR5PMA7u9iWDa9J3Jsq4v1iVKPgUnUZYvmzTwcwH93+TAbAfiOa4kNu3wcotRiYBJ1kWuJZpCd2qPD5Ysif1qPjkWUOnyGyWeY1EWRY98OYF4PD/k3ACJT9p/p4TEpRdKcGbzCJOqShXNnvKvHYdm0KYC7iiKv8tUVImJgEnWHa4lXlczhyzUdfo5riY9oOjbRwOItWd6SpS6IHPt+AHtobGEKwBaZsv+0xh5oAKU5M3iFSaTYwrkzDtYclk3DAO4tinw3X2UhShUGJpFiJXP4g7p7iL1j0byZh+pugmhQMDCJFCmKPCLH/jiAt+nu5SXOcC3BBUBECjAwiRQpifx/A/g0gH56KL6da5uX6m6CaBAwMIkUcW2zX27Fruj4hXNnzNLdBFHSMTCJFIgcezcA79bdx6qUzOFzdPdAlHQMTKIOuZbYEsAC3X2swR6RY3PfTKIOMDCJOuTa5ikAXq27jzVYG8D1riW20d0IUVIxMIk64FriDQCO1t1Hq1zb5K1ZojYxMIna5FpiHdc274/ntybFB1xLbKy7CaIkYmAStako8h8AsJXuPqZp7aLIO7qbIEoizpLlLFlqg2sJuLb5RwBb6+6lDZwzS21Lc2bwCpOoDUWRn5fQsATnzBK1h4FJ1IY+mhfbLs6ZJZomBibRNMTzYj8FYEfdvSjAObNE08DAJJqGksi/DcAndPehyHaubZZ1N0GUFAxMomno43mx7TqBc2aJWsPAJGpR5NjvBHCI7j5UK5nDZ+vugSgJGJhELXAtsTWAW3X30SVzIsc+UncTRP2OgUnUAtc2TwWwie4+umRtADdwzizR6jEwidbAtcQMAO/T3Ue3cc4s0eoxMIlWw7XEG1zb9AG8SncvPXBc5Ngn6W6CqF8xMIlWw7XN0wHkdffRI2sBuMK1xBt1N0LUjxiYRKsQOfYOAN6ru49e461ZopVjYBKthGuJ9QF8N567mjbvixx7hu4miPoNA5NoJYoif3JKnluuTPNz4R7XEq/R3QhRP+H2Xtzei1YQOfbaAB4FsJnuXjT7ZKbsf1p3E9Rf0pwZvMIkeomiyK8H4E6G5QtOcC2xhe4miPoFA5PoJUoifwCAfXT30SdGXdu8y7UEb8EQMTCJ/sO1xNqubZ6lu48+s0NR5A/X3QRRP2BgEsVc2zwXwNt099FvSuYwXzMhYmASLedawgbwYd199Kk3R459SVHkeWuWUo2BSbT86vLseNINrdyZJZF/u+4miHRiYFLqRY59EIB9dffR7zgBiNKOgUmp5lpiFMACAOvq7iUB9osc+0DdTRDpwsCkVItXxfLfQeuudy3xOt1NEOnAST+c9JNakWO/BsCfAGR195Iwl2fK/mm6myA90pwZPLOmVCqK/MYA7mdYtuWIyLHforsJol5jYFIqLZo380gA2+nuI6FeONlwLcGTDUoVBialjmuJ5gf+qbr7SLjNiiJ/ku4miHqJzzD5DDN1Isf+FufFKjEBYMtM2X9edyPUO2nODF5hUqosnDuDw9XVGQUwvyjy6+huhKgXGJiUKiVz+IO6exgwB5VEfj/dTRD1AgOTUqEo8ogc+8MAbN29DBrXNs9yLcGxgjTwGJiUCq4lDgXwGQB8YK3eLq5tfrso8lw1SwONgUmpwFuxXbdnSeQP0t0EUTcxMGmgFUV+KHLs8wDsoLuXQefa5plFkednCg0s/nDTQCuJ/M4APqq7j5TYsSTys3U3QdQtDEwaaNySqrdc2zzbtYTuNoi6goFJA8u1xGsBHKy7j5TZ07XNI3Q3QdQNDEwaWK5tcqGPHl90LfEm3U0QqcbApIEUOfbrARyju482LQFQ191EBzZwbfMM3U0QqcbApIFTFPlXA7gPwNq6e2nHWDD1aQBX6u6jQ4dFjr2z7iaIVGJg0sBZNG/mBwAUdPfRph+Oh7VbPT+4GECSh5pvFG8BtoHuRohUYWDSQHEtsTmAE3T30aa/eH5wsFcJ4VXCx+IFS8/obqoD+aLIn6a7CSJVuL0Xt/caGK4lhlzbrAB4m+5e2vSRTNm/4KX/IXLs2wHM09dSx/4GYItM2X9WdyOkRpozg1eYNDCKIn9YgsPykVnzF1+74n+Mb80u1dOSEpsCuItzZmkQMDBpYCR4XmwzEPcaD2tPrPgLXiX8CYBP6WlLGc6ZpYHAwKTEi+fFXgjgLbp7adOXM2X/D6v6Rc8Pzgfg97YltVzbPNO1BDeapkRjYFLilUR+FwCJHYHn+cFFq/31Svh8fGs2yXZ0bfPTupsg6gQDkxIvwRN9lgI42quE1TX9xrGw9i0Ad/Smra45Z+HcGbvoboKoXQxMSrTIsfcDsL/uPtr0vUzZv76V3zge1p4FMBfARPfb6ppMyRw+W3cTRO1iYFJiuZZ4HYCv6u6jXWPB1Gpvxa4oU/ajsWAq6bdm94kcmwPxKZEYmJRYrm2eBmBYdx9tumb2giULp/tN42HtSgCPdaelnlgXwALXEqO6GyGaLgYmJVLk2G8BkNRtpH7l+cHp7XyjVwmf8fxgDwBSfVs9M+TaJm/NUuIwMClxXEtkAXwXwMa6e2nTpV4lbHs3Eq8S/hrADWpb6rkTI8d+je4miKaDgUmJUxT5kwC8WncfbfrBrPmLb+u0iOcHlyf8KrN50nN/UeSTetJDKcRZspwlmyiRY1vND9p4N4yk+ZnnB7ZXCZ9TUcy1xGtd2/wRgM1U1NPkykzZP1l3E9S6NGcGrzApMVxLbJjgsGxeFX5OVVhi+a3ZPwB4xfzZhPlA5Nhb6W6CqBUMTEqMeKuoRIZlM+jHwto3VBf1/CDpq2bXAfCdoshvorsRojXhLVnekk2EyLHXA/AogCR+sP493uKqK3tbRo69M4BKN2r30AczZX9a76WSHmnODF5hUt+Lt4b6VkLDEmPB1Oe6FZZYPtDgxwBu7lb9HjnJtURSF3JRSjAwqe+VRP4QAO/U3UebauNh7bJuH8Tzgwu7fYwu29q1zdtdS+jug2iVGJjU11xLrOva5pm6+2jTPwHs6VXCp7p9oLGw9st4x5ao28fqolJR5OfpboJoVfgMk88w+1rk2J8D4Ojuo03XZMr+cb08YOTYDwB4Ry+Pqdj/Zsr+23Q3QauW5szgFSb1rYVzZzQ/+NsaIdcHnvb84NJeH3QsmEr6rdmdIsc+tyjyuvsgegUGJvWtkjl8ToJ/Rk/2KuGSXh909oIlg7BvplsS+Z10N0G0oqR+GNGAixz7MAB76e6jTfd7fqBt1qvnB+8D8Dtdx1fBtc1zdPdAtCIGJvUd1xJbArglfqk9cTw/uMirhPqOXwlrALq+MrfL5kWOPUt3E0QvxcCkvpPwrZ+uGgtr097nUrVZ8xd/FcDPdffRodtcS3BsHvUNrpLlKtm+Ejm2CeCReKPhpPldpuxvq7uJF0WOvQmAvwBYX3cvHbgoU/Y/qLsJ+o80ZwavMKlvFEX+VQC+k9CwxFgw1Vej3TJl/+8AvqC7jw4d7Vqib05CKN0YmNQ3Fs2beTSAN+nuo02/HQ9r1+luYkWeH1wCYKnuPjqwqWub97uWSOTzbBosDEzqC64lNgVwiu4+2vRXzw/29irh87obWZFXCR8HcACAhu5eOrBlUeQ/oLsJIgYm9QXXNm8HsLXuPtr0Za8S/lF3E6uSKfv3ALhTdx+dKJnD53DOLOnGwCTtFs6dMRdAUl8hmPD84Iu6m1iT+Nasss2rNdiac2ZJNwYmaVcyh5O8CvJArxI+qruJNfEq4U8BfFJ3H52IJz8RacPAJK0Wzp1RApDUMWg3Zcr+/+puolXxFmA/1N1HB3aKHNvlnFnShYFJWiX5qsHzg756jWRNvEoYeX5wse4+OnQu58ySLgxM0iZy7CMBzNHdR5u+E+9BmShjYe3bABbr7qMTnDNLujAwSYuFc2fsBeAGAGvr7qUNU54fnDL+wsjWZBkPa8+NBVMnJnyj6XmRY19UFHmO6KKeYmCSFkm+FQvgSK8SPqK7iXbNXrDkwQEYzn52SeR31d0EpQsDk3oucuyTm5mpu4823ZUp+3fpbqJTnh98KOnD2XlrlnqNgUk95VrijfF800T+7CVtoc+qeJXwWc8PPqe7jw7tHzn2frqboPRI5IcWJZdrm0l+5/LisbCW5NcyXmYsrH0dwP26++jQja4lXqe7CUoHbu/F7b16JnLs/wLwi4SeqP0yU/bforsJ1SLHXg9ACGBT3b104LJM2T9ddxNpkebMSOIHFyWQa4nNAXw7qT9zKrfuihx7505ruJZ4VeTYHb+Skyn7z4wFU0m/NXtE5Njb6W6CBl8iP7woeVzbPB7Alrr7aNNPx8PazSoKRY69LYBDFZRaF8AdriU26rTQeFi7DMCUgp50MQB817XEerobocHGwKSucy0hAByvu482Per5wQFeJez4PlRR5IcBfBOAqmcA66vY9sqrhE/HAyT+qaYtLTYrivxJupugwcbApK5yLZFxbfPbAEZ099KmL3mVcEJFoUXzZjavLLdVUetFJXP4ZBV1MmX/JwBuUVFLl5I5fHbk2PxMo67hDxd1VVHkjwCQ1OdLf5w1f/HVKgq5llgbwIkqaq2gEDl2WcXUG88PLgXwlJq2tBgFcHtR5NfR3QgNJgYmdVWCt+56HsC7xsPa4yqKxa/TbB//v6r3pTyjJPI7dFrEq4S/AXCcmpa0OaQk8vvqboIGEwOTuqIo8pnIsS8DMEN3L226LlP2f6OikGuJmSvsRfm8irovO4ZtKnl+lyn7XwNwj4pauri2eZZrCX62kXL8oaKuKIn8bgBO1d1Hu1RO9IlXCHd7BeeRkWMLFYUGYJrRrgkfkEF9ioFJXZHgD6zm1d8JXiX8nYpiriW2AfA/KmqtwdoA7i6K/IadFhoLaw8MwHD2T7mW+G/dTdBgYWCScpFjvwfA3rr7aNOiTNm/SkUh1xJDrm1+A8AmKuq1YPuSyB/caZHxsBbFk3OSvG/mOq5tnqW7CRosDExSyrXEtgCu0d1Hu1RO9CmK/EEvWejTE65tnqTq+d1YMHWhijoaHRQ59l66m6DBwcAkpVzbPANAx7cFNblx9oIlyoaRl8zhU1TVmoadXds8QUWh8bD2VQAPqailSRbAXa4lkjwnl/oIA5OUiRx7px49r+uGJZ4fKJsUEzn2YQB2U1Vvmi50LfH6Tot4lXCZ5wf7AVAyuEGTdVzbPFN3EzQYGJikhGuJDeKtovK6e2nTpfGIuI65ltgMQPPqbK2V/brnBw0Vx1mNDVzb7HhkHpaH5qMAvqSilkanRY49rLsJSj4GJilRFPlTAWysu482/XjW/MVfU1WsKPInrCose+hI1xKjKgp5fnA1gD+qqKVJ82TuOypWEFO6MTCpY5Fjr1Myh5N62+spAHuOhzUlI+Eix86UzOF+GAL+Gtc2lZwEeJXwrwD26cbAhR7aedG8mUl9XEB9goFJHSmK/HoA7gLwat29tGMsmLosU/aVbG1VFPnmv6cbm2Glop4Cuy2cO+NdKgplyv7/AfiKiloanR4/OiBqCwOTOuJa4sMAkrp0f5FXCf+fqmKuJY4G8F5V9VQomcMXuZbIqqg1a/7i5t/1/6mopckM1zZ/GG+zRjRtDExqW+TY65fMYUd3H22SAPYZD2t1VQVVbbWlWDMkPqWi0HhYexLAngCeVVFPk7csmjfzSN1NUDIxMKktRZFfH8C9ABJ5tj4WTF2aKfvKwjJy7LMBvFVVPcUc1xJKesuU/WAAVs2e6loikT+3pBcDk9oSb4as6z3DTv1rPKxdqqqYa4nXAZjOhKBeL55Z27VNZXtxen5wsapamrzetc0bdDdBycPApGmLn4mdobuPNj0NYC+vEtZUFWxja62lqo49De92LfEmFYW8Sti8yjy0C/t69tIBC+fO2E93E5QsDEyaNtc2m1dn2+nuo023Zcr+g6qKRY69IQAlQwK6bNi1zbtcSyh5PzRT9m9P+r6ZJXP4HN09ULIwMGlaFs6dMRvA8br7aFPd84OyqmJFkV8XwJ0Jmp37uqLIH6qqWDyoPlJVT4NdI8fmjibUMgYmTUvJHD5bdw8dOMOrhL9WVawk8nsD2F1VvV5QORB+9oIlPwSQ5OeZzc+/i11LvFl3I5QMDExqWeTY7wOwh+4+2vR9zw+Ubjvm2mY/vkayJjur3FjZ84OPA/ipqno6uLbJW7PUEgYmtcS1RAHAdfHO/onj+cHFXiVcpqqea4k3JPTkIaN0xWwlfM7zg0tU1dPkcNcSI7qboP7HwKSWJPws/PqxsPZdlQXbWBnbT+ZGjj1TVbGxsHZH/E5uUg25tpnkRw3UIwxMWiPXEgaAY3X30aZqpuwfPR7WlL37GDl2vsM/D92TcoYB3K1qxex4WHsGwAEAnlBRT5OTIsfeTHcT1N8YmLRGRZE/M6m3YuOVnMrEw+bvjLeMalc/rCzdpijyh6kqlin7z40FU0m+NZsFcD/nzNLqMDBptSLH3qhkDp+uu482yfGw9mWVBUsi/y4As1TW1EX17NvxsHY5AGXjBjXgnFlaLQYmrVJR5JtXUfcB2Eh3L+0YC6bKXiVUOlUn4c8uV/S2yLFPUFXMq4T/AvAFVfU04ZxZWiUGJq3SonkzDwOwi+4+2vTUeFj7vMqCkWMfAOCdKmtq1vz3/0XXEluqKhivmE3yRtOcM0urxMCklXItsX7C58XurXRerCUEgGtV1esnKq+avUr4VwAHAXhGVU0NOGeWVoqBSSvl2uYVAJS9etBjt2XK/g9UFnRt82gAm6is2UeOjxxbySbTWL4A6G4A31RVTwfOmaWVYWDSKyycO2MPAO/T3UeblM6LxfKry40BHKOwpLIBCoo0//fNL4r8OqoKxrdmdezKogrnzNIrMDDpFRJ+dn26ynmxWH51eSWArRWW7MfblfuWRF7Z81mvEv4EwLmq6mnAObP0CgxMepnIsY8DMFt3H21SPy/WEu8AoOx9xX6megWw5wcXAPiRypq9lvAJV6QYA5P+zbXE6wFcBUDJBJhe8/zgIq8SKq2Z0AHr7do3cuyiqmJeJXx+EObMRo69g+4mqD8wMOnfXNv8oO4eOvCVsbD2PZUFI8feBcD+KmsmwC2uJV6jqthYWLsbwNdV1dNgCMBdriVGdTdC+jEwCUWRR7zAQeXCll66J1P2369yXqxriW0BNAM4p6pmQoy6tumpKjYe1p7z/GAegIWqamqwhWubSheSUTIxMAklkX9zvBFwIn8ePD9QOi8Wy6+2j0thWL7ofSoHkXuVcJnnB0neaLrp3ZFj76a7CdIrkR+QpFbCb8VeNhbWHlBZMB5ScLjKmgmzHoC7iyK/vqqCY2HtfgDXq6qnyQKVU5EoeRiYKRc59o4JDoclmbJ/+nhYU7b7h2uJ5gnEbQC6udVTEt5PfFtJ5A9QVWw8rD2fKftHA/iDqpoavDpli8BoBQzMFHMtsUWSJ7Ko3roLy5/n7teD+blJCMwXXjNxLTGksmY3/s567Jh4NTmlEAMzxVzbPBFAUlf//XI8rN2ouqjqLa8S7u2ubSrd7mo8rF0L4BGVNXtsU9c273ctkcj9YakzDMyUci2xDYBjdffRpknPD/bxKqHSjZgjxz4QwO4qaw6Ay+KfFSW8SrjU84M9ATyuqqYGWxdF/gO6m6DeY2CmkGuJtVzbvBeAsvfteuwqrxIqnVDgWsIAcDsAXjm8XN61TaUnVl4lrAJQurF3ryV8fCS1iYGZQkWRPxrAtrr7aFPg+cFVqosWRf4EAMqGjw+Yo1xLKF0E5fnBlQAmVdbssW0ix76+KPKJnIpF7WFgplDJHE7qayQRgH29SviY0qKOPcRnl6u1hWubSl8J8SrhowAOVFlTg6NKIj9HdxPUOwzMFGmeDUeOfTWApK7yuzFT9n+psmBR5IcANP9MtlBZdwDtHW/7pkym7P8EwE0qa/aaa5tnq15JTP2LgZkiJZGfDSCxixW6MdGnJPK2hsVP/bi91xp14yrc84MLVdfssdmubR6vuwnqDQZmSsQv5Cd1oUIE4DSvEi5RXVjTi+j9toF0q/aKHFvpVeZYWPsVgLPjv+OkKnPfzHRgYKaEa5vHAFD6YddD45myf7nqopFjvwHAe1TXHWDrAbjDtcSGqgqOhzVkyv4lAH6gqqYGWdc2Hd1NUPcxMFPAtcRMAMoDp1e6NNFnOJ5yxH8D07NBN95BHIAJQO+OHPsdupug7uKHRQrEZ7/KBmn32O2zFyy5V3XRRfNmHgrgjarrpkE3nmXOXrDkWwnfN3MDAPe5lhjW3Qh1DwNzwEWOvSuAQ3X30abfeH6gfEFOPNbsBNV1U+S1kWNfUhR5pUU9PzgGwG+VFu2t9Ysif7ruJqh7GJgDzLVe+ES7D4CyZ049drlXCf+puqhrm2cDeKvquilzZknkd1BZ0KuENQCXqazZayVz2IkcO637qA48BuYAK4r8aQkOy5/Nmr9Y+Tt6riVmADhXdd1pSuoq2ZdxbfMk1TXjv/Ofqa7bQxsDuEflXqLUPxiYAypy7GzJHD5Tdx9t+heAOeNhraa6sGubJ8SrPXVK5HuYK3Fk5NhKBz7Ef+dz4p+BpCqVRH6u7iZIPQbmACqKfA7AtwEYuntp0xcyZf9J1UVdS2wN4H9U102xdQDcXRT5DVQWjf/uE7uqG/FCO9cSuk/MSDEG5gCKz25n6+6jTc97fnCJ6qKuJYZc2/w6gE1U1065t5ZE/hDVReOfgURstL0K27u2mfRXZWgFDMwB0zyrdW0zqbdinwFwgFcJle+VWBT5gwAoXaRCy7m2eaJrCaWfJV4lfALA/gAaKuv22CkL587YTXcTpA4Dc4AURX5D1zbHmme3untpx1gw9dlM2f+26rquJTYomcOfVV2X/s1ybfMW1VtdZcr+vWPB1AUqa/bYUMkcvrIo8tw2bkAwMAfIonkzD2t+eOnuo02N8bB2aTcKu7Z5CYDXdaM2/duhJZEvqi4a/0wkeQHQzJLI76O7CVKDgTkg4rPYM3T30abmB+K7vEooVRd2LbFzkndoSZJuvGbiVcIpAHsBeFp17V5xbfMs1besSQ/+JQ6IksjvC2CG7j7atCBT9hd1o3D8Id5vP+dJXsyyOoe4lhhRXTRT9h8EcJvquj309mZo6m6COtdvHyTUhubZa4L/QS71/OBz3SjsWmJzAAd3o3aHBjUwURT5E7tR1/ODMoDnulG7R85zLcFFZwnHwBwArm1+CMCuuvto03e9SviLbhR2bfOoBE86SqSSOXxi5Nhrq67rVcJfA1A+hL+H1knwSS3FGJgJ51pix+bnie4+2tWtbZ3iPRuVD26nNdoUgPIVs1j+s3JxwjeaPihy7Dm6m6D2MTATLj5rTeqy9atmL1jSrWeXl3JlrDbzSiI/S3XR2QuWPAigrLpuD+UA3O1agsMzEoqBmWCRY+8N4EDdfbTpl54fdGVVr2sJG8Ax3ahNrenGilksf5b5UQA/70btHlm3KPJJHSySegzMhHIt8WoAdwHI6u6lTZd6lbArU1xc2zwRwFA3alPLDooce0fVRb1K+Gw3Rif2UskcPi1ybLWbiVJPMDATKr4Vq3xxRY88OGv+4q68JhA59n/36crYNFpQFPlNVRcdC2vfAPAd1XV7aMNm/0WR54K0hGFgJlDk2AaAU3T30aYpAHuPhzXl01tcS6wL4FsAlO6e0QWDsr3Xmmy1aN7M96ouOh7WGvGc2b+prt1DVjyZixKEgZkwRZHfCMD9CQiFlRoLpi7NlP2uTG0pivwRADbvRm3FBmID6RYd51pC+WODTNl/diyYSvStWQCnu5ZI5L/jtGJgJsyieTMPB6D82VCP1Ls1LxbLnw0d163a1LYZrm1+pBuFx8Pa5QD+0Y3aPTLTtc0rdDdBrWNgJkj8buFpuvto04vzYrv2Aef5wWHxO6nVbh2DWrYUwPfHgqn/8fzg0904gFcJnwYwB0CtG/V75KiFc2fsobsJag0DM0Fc27wWwBt199Gm+ZmyP9bNA3iVsJop++d6fvDm+H29gR1B1+eaQbZfpuy/c/aCJV/zKmHX/h4yZf9/Adzcrfq9UDKHz9HdA7WGgZkQC+fO2BvAu3X30aZn4lmgPeFVwn9lyv6Znh9sD+AbCZ8OkyTBWDB1vOcHm2XK/n29OqjnB58H8M9eHa8LZkeOzR11EoCBmRAlc/iDunvowNndmhe7Ol4lXJwp+4cA2BbAr3t9/BRpnpB8pXllP3vBkqubJyy9PLhXCX+b8DGIawG42rXE63U3QqvHwEyAyLFPA7Cb7j7aNOb5gdaFDZmy/8is+Yut+Bnnd3X2EhuUVbJ/A3CF5wc7Zcr+++O9K7XIlP3bAdyj6/gquLbJW7N9joHZ51xLzADw+aT+XXl+cLFXCbUHxHhYe9qrhLdmyv4cAG8H8CeN7QzCe5j3Na8oM2X/FK8S9sWoOs8PLtTdQ4eOiRx7W91N0Kol8kM4TVzbTPKt2JvGwlrfTWTJlP0fzpq/eAfPDz4AwNfdT4LUANzg+UExU/b39irhY7obeqmxsPYAgK69ttQDazWvkosiv5nuRmjlGJh9LHLstwA4QncfbZoAcOR4WOvLlarjYU16lfDLnh/sAuBQAE/o7qnPPez5wY6Zsv8+rxI+oLuZlRkPa8syZd9J+PPqwqJ5M5P8PHagMTD7lGuJkXjMW1L/jkYBPLJw7oxPu5aYURT9OWvaq4QvPP/y/GA7AM0P21/p7qmP1AHcMRZM7eP5wVu9Svh73Q2tiWuJ9QbgrsEJriWSMLEqdYaWLdP+eEm7oaH+29gicuxb4yufQfEQgFs9P7jdq4Q6nx+uVlHkh0oiv7Nrm8cAeC+A9VUfw/MD26uElU5qND9QXducVNfVyywGcL3nB7d4lXCiS8dQpijy+ZLI7+Xa5rx4xuy6untSIPT8YOd+/PNPc2YwMPswMCPHfjuAB3X30SUNAJd4fnB+r18/mK7IsYcB3AZgT5V1+zgwm38fn/L84JJuDhtQxbVExrXNQwB8DoDQ3U8XfCpT9l3dTawozZmR1Nt9A8u1xJYAvq67jy7KAviYa5u/iRz7c64l+nYubqbsT82av3hfzw/2APC1AZ4c9Mdmjnt+sF2m7H+238PStcTMyLHPdW3zlwBuH9CwRDy4fkvdTdB/8Aqzz64wI8f+LIAkr4xtx0czZf8zuptYk8ixmx9e8wG8rZM6nh/s6FXCn3VSQ9EV5tL4PcqPxXNZ+5prCeHaZjne7zQtJ/uLmycyXiXsm2lVac6MpG5APJDiSR/H6O5Dg/Mjxz4RwC2eH9wyFtZ+NR7W+u5fZabs/6Uo8qWSyO/p2uYF8QShdjyvuLV23Oz5QfNqsq8XORVFfq2SyO8UP588FkB/rh7rnplFkT8KwHW6GyFeYb6gH64wXUus49rm7wBsrbuXPnArgPdnyn7fPuOMHPtOAAe0873xitOHOzm+givMWd0eht+pyLG3ioNilu5eNPu/TNmfobuJF6U5M9JyW6PvFUX+WIblv70HwBORY1/vWmLPosivp7uhlVC+epZeOBF4tWuJYyLHvjfepi3tYdn0psixLy+KPD+vNeMt2T4QOXbzEpdzJF+uGUhHubZ5lAv8DMARmbL/f7qbeoms7gYGiWuJdV3bPKn5fwLYWHc/feiUksh/YzysLdLdSJrxjEWzosg3T1puALCN7l762H8DWBI59n2uJY4qiryhuyEAOd0NDALXEjtHjn2xa5u/ifcwZViuAoez68crTM1KIj8nwePvem1P1zb3dIHHAJwRD0HQ9UCFgdmByLFnALgawK66e0mQvSPHfk+m7N+qu5G04hWmRq4lhnjW2JbNAdzq2uZDkWN/yLWEjqtz3pKdJtcS+YVzZxwdOfY9AH7KsGzLNa4luKOJJgxMjeJnNiXdfSTYWwBc4NrmksixL3AtsWEPj93Jop+Gwj4SIXLs01zbfLJkDn+leaXEK/S2beja5um6m0grBqYmriWaH/aX6O5jQDSv9j7k2ub/RY59qWuJjgYLtKgfV+72jaLIr9X8e4gc+6LIsf8c7+m6lu6+BsR7I8fu2wlZg4yBqYlrm2fyQ1c5AeB01zZ/HC8Q6uZrOnytZBUixxaL5s38TvPvAcDZADjeTa08gPtdS/BnsMcYmBpEjj0LwFzdfQy4PV3b/EXk2Be6lti+KPLKplO4lsjwZOflXngeb4l3Ro79bQDNK8rddfc04IyiyJ+iu4m04SrZHnMtYQC4h4tGeqJ5Jn6Oa5vnuMtnwB6TKftPdVrUtc1mXf3jofpE5Ni7xq9GvVZ3L2lSMod55d5jvMLssbGwtnE8+u1J3b2kzDwAj0eOfaNrib07nB60qcK+Esm1xMjCuTNOixz7QQCLGJY98xiAizw/2G7W/MWn6m4mbXiF2WPjYe2PmbJ/tGuJLVzbvKLdeaTUlhyAI1zbPMIFHgZweKbsL26jznAXekuEyLGbJ9nnAfiw7l5S6CIAH8qU/fQOc9WMgamJVwkf9Srhga4ldnJt8/D4meao7r5SZHsAv44c+7ueH3wNwDe9StjqVf8mHR67b7ZqakVR5Nctifw74h1D5ir430+te2QsmLppPKzd5FXCP+huJu0YmJp5lfB/m1+uJT7p2ub5AI7j30tP7eHa5h4A/ura5pmeH9zawt6DnY7me7bD7++ZyLGbJxZfAfBW3b2k0DmZsn+x7iboP/gMs094lXAqU/ZP9vzgzfEtr0d095QyrwFws2ubD0eO/RHXEoXV/N5+mGXbNa4lROTYp0aO/QCAhxiWPbMMwC/GgqlzPD8YYVj2HwZmn/Eq4W8yZf/jnh/MBPARAH2/E/6AaZ6wnB8PQbjItcRGK/k9A3lLsvm/NXLs8+J9WS8D8A7dPaXIcwCOzpT97WcvWHKxVwkf090QvRIDs095lfDZTNm/wPODGfHWX7/Q3VPKrAvg7Dg4L3MtsfNLfm1gFv24lmh+zY4c+4uubf4WwEc5tq5nngfgjwVTJ3p+8OpM2b9Bd0O0ekNp3j37RUND/f9KXVHkh0oi/1/xAqEjAIzo7imFqmPB1C0lc3hHAHu1W8Tzg228SvinThpxLbG5a5uTHZT4MICt4tdtUv+aTI/9HsAtnh/c4lXC3+luZrrSnBkMzIQE5ooixz4/vmVLCdMngUm99xSA8zw/+JxXCROz8GtFac4MrsZMqEzZ/6hriauLIv/ekjncvOp8o+6eiGilfgngq/H+rX/R3Qy1j4GZYPFVynnNr8ixTwJwhe6eqCXP6W6AeuZazw+Oa+FVJUoALvoZEJmyf6XnBzvEW4YFuvuh1XpedwPUVRMAPuv5wZtnzV98LMNycPAKc4B4lfCh5pdriXNd23QBnBav9iSi3vhMpux/VHcT1B28whxAXiV8KlP2z/H84L8AnAvgt7p7Ihpgj4wFU5/0/GAbhuVg4xXmAPMq4e+9Sui5ljjPtc1Tmv8p3vKKiDq3DMCZmbJ/qe5GqDd4hZkCXiVc2vxHHQ9BcAD8THdPRAnVDMmHx4Kpszw/eA3DMl14hZki8Q4pl7qW+LxrmwfFq2o3190XUUK8OL7uZt2NkB68wkwhrxIuy5T9b8yav3im5wfvjzcAJqJXeh7AD8aCqeM9P3gVwzLdeIWZYuNh7cnxsPYVrxJ+JXJsC8B1HIDQEw3dDVBLpgC8J1P279PdCPUHXmHSCzJlvzJr/uIdPT+YB+CbfFeQUupZAPeNBVOHe36wGcOSXopXmPRv42Ht6fGwtsCrhAsix94SwK0AbN19EfVIAODdzZNH3Y1Qf+IVJq1Upuz/Zdb8xSXPD+YAuBHAUt09EXXJT8eCqYPi9ygZlrRKvMKkVRoPa8+Oh7XvepXwu5Fj3xhfcXIrKBoUjwE42fODO7xKmN4tOKhlDExqSabsf9+1xEhR5A8umcNHANidGw1TQo17fnATgGZQ/l13M5QcDExqmVcJlwK4vfkVOfb2AG4B8CbdfRG16BEAx2TK/oO6G6Fk4jNMakum7D/s+cHMsWBqbwA3xUvwqTXcvaK37vH84LBZ8xfvwLCkTvAKk9oWP/e5r/nlWmJr1zavAfBO3X0lQGJ320+YhwAcnin7S3Q3QoOBV5ikhFcJ/5Qp+3t4frArgC8BeFx3T5RKSwHM9/xgv1nzF+/KsCSVeIVJSnmV8EfNL9cSH3dt8xIAR/DEjHpkDMD/ZMr+pO5GaDDxg4y6wquEf8+U/fd5frA9gM8C+JPunmgg/QvAdZ4f7D5r/uI5DEvqJl5hUld5lfBXXiX8cFHkP1ES+be7tnk4gPcAWF93b5RYDQCLxoKpr46Hta97lZDPhKknGJjUE+Nh7bnxsLbIq4SLIsc+BcANAObp7osS5w/xbdef6G6E0oe3ZKnnMmW/Pmv+4kM9P9gJQBnA07p7or73k7Fg6gDPD97AsCRdeIVJWoyHtWXjYe2nXiX8aeTYXwZwM4DtdffVI7yF2LpHAZzi+cGdXiXU3QulHAOTtMuU/SWuJd4KYPf4GecBAAzdfXWLVwk5uGDNFnl+8NWxsPbN8bD2pO5miMDApH4RXz1836uE33ctIVzbvBLAfrr7op77PYAjuWsI9SM+w6S+41XCMFP29/f8YGcAlwPgqwKDrXnF/S3PDw6Nx9cxLKkv8QqT+pZXCX/S/HIt8QnXNj8L4P38mR04PwPwnkzZf0R3I0RrwitM6nteJZzKlP0TPD/YDsB58asFlFzPAbj1JePrGJaUCEPLlnHf1KGhId0t0DS4lsi6tnkGgE8kcQBCpux3/APnWmJz1zaTeKt6IYBDM2X/b7obofakOTN4hUmJ41XCRqbsX+D5wZsAfBDAL3T3RKv1LwDXen4wa9b8xXsyLCmpGJiUWF4l/Eum7F/k+cEOAI4C8ITunlqQtn1DFwDYNFP2j/Uq4dh4WFuquyGidjEwKfG8Shhlyv6Nnh/MBHAigB/o7inlngRwmecHO82av/jdmbJf190QkQpccUgDw6uET3iV8EsAvhQ5dgnAtQAKuvtKmeaf/ymZsv+87kaIVOMVJg2kTNkfmzV/8VvHgqmPAPi17n4GXA3ATWPB1F6z5i8+kWFJg4pXmDSwxsNabfaCJRcAuCBy7PcDuArAWrr7GjDjnh8c7VXCP+puhKjbeIVJqZAp+9d6frDJWDB1EgAfAK+C2vc3AFd7fvCOTNkvMSwpLXiFSanhVcIpAF9sfkWOvS+AmwAM6+4rYW7z/OA0rxI+rrsRol5jYFIqZcr+t1xLbF4U+UNK5vDhAGYBWK8Hh07iaxWPApjv+cFXvUr4c93NEOnCwKTU8iphI96H8+bIsXcG8DUA23T5sE91ub5KzXC/wvODT3qVsKa7GSLdGJhEy684f+xa4nVFkd+nZA4fAWBvABvq7kuTR+Jbrzd5lfA3upsh6hcMTKJYvLHz3c2vyLFfD+CrAHbW3VcP/QvAeZ4ffC6++iail2BgEq1Epuz/HoDlWqLo2ubhAA4CsInuvrrk1wBu9vzga14l/LPuZoj6FQOTaDW8Sjje/CqKvFMS+b1c2zwCwL4D8ErWEwBu8vzgprGw9tB4WEvvFhRELWJgErVgPKw9NR7WFniVcEHk2FsBuC3Bt2u/AOD0TNmPdDdClCRJP0sm6rlM2f/zrPmLdxsLpo4D8EBCXhX5R3xFOWfW/MWnMiyJpo9XmERtGA9rz85esOQaANdEjv1OALe2+IxTx2sl93t+cLxXCf+k4dhEA4OBSdShTNn/nmuJkaLIHxwPQdgdQG4Vv71XV6OPA7jD84MbvUr4ox4dk2igMTCJFPAq4XPxc83bIsd+azwQ4U0aWokAfM3zA8erhEnYUJsoMRiYRIplyv5DriVmFkV+r/iKc18A+S4fNgBwezxs4OEuH4solRiYRF3gVcJlAO5tfrmW2Nq1za/E82pVexbAlZ4ffMKrhEkau0eUPMuWLUv9F1EvuJbYNXLsDyqqNRw59rmuJbZVUY+oVbo/r3V+DTEwgKGhId0tEBElQpozg+9hEhERtYCBSURE1AIGJhERUQsYmERERC1gYBIREbWAgUlERNQCBiYREVELGJhEREQtYGASERG1gIFJRETUAgYmERFRCxiYRERELWBgEhERtYCBSURE1AIGJhERUQsYmERERC1gYBIREbWAgUlERNQCBiYREVELGJhEREQtYGASERG1gIFJRETUAgYmERFRCxiYRERELWBgEhERtYCBSURE1AIGJhERUQsYmERERC1gYBIREbWAgUlERNQCBiYREVELGJhEREQtYGASERG1gIFJRETUAgYmERFRCxiYRERELWBgEhERtYCBSURE1AIGJhERUQsYmERERC1gYBIREbWAgUlERNQCBiYREVELGJhEREQtYGASERG1gIFJRETUgrV1N9BvjOU+qLuPbpJSLpBS/qyV31soFI4DsE2Hh7ywWq3KFo71UQAbdXis6VgmpXwGQASgAeBpAFMAagCeAPBY80tK2ehhTy9TKBSOADCjwzLfr1ar31PU0mpls1mMjo4eCeBNikp+s1qtVtb0mxT9OV1WrVYn13Cc5meD0clB6vX6/ZOTk4s6qdEuwzBMwzBO6rDMRxS1kzgMzFcaBvBh3U102W8BtBSYAP4HQLHD413VzOkWft+pADbv8FjTYhhr/OyLDMNYDOCe5peUsiKlfLY33b3gYAAHdlijeVLQk8DM5XK7AbhBUbm/SSk/0+LvPQTAAR0e7zYAqw1MACcC2LqTg+RyuX0AbNdJjQ5soeDzLbWByVuyRKvX/DfyZgAfAjBuGMYThULhh4VCoWwYxm6GYaylu8F+kc1m1zUM42JF5apSyp2llDVF9frJmwuFwqm6m6DpY2ASTU8ewC4AzjAM48UAPVJ3U/1gdHT0CAA7KSr3cSllVVGtfnSZYRg9vZtCnWNgEnXGAHBDoVD4/cjIiGsYxha6G9LBMIxtAXxSQakIwGcmJibmK6jV17LZ7BkaDruBhmMODAYmkRqvy+Vy5xqGERYKhffqbqaXDMPY2DCMCoAtFZS7q1qtfrTRaCxVUKuv5XK5kwuFwlCPD7txj483UBiYROpdVygUFhiG0emqzUQwDONCRR/Ej0opB33B3UttCOAb2Wy216FJbWJgEqm3DoBDDMNYWCgUVFx19a1CoXA4gA8oKPUvALtIKX+roFaSHJjL5fbQ3QS1hoFJ1D2vAbB4ZGRkru5GumFkZGR3ANeqqFWv1z9WrVb/oqJW0hiGoeKEg3qAgUnUXRvmcrkbCoXCwN2ezeVyZQDrKih1T6PRuFRBnaSaWygUTN1N0JoxMNNJ2+SalFofwI9GRkZ21t2ICtlsdsNCofDN+P3UTj0gpTxEylbmWgy0HzT/XHU3QavHwEyfJwF8S3cTKTScy+Uu1N2ECqOjo6cA2F9FLSnl6TpHD/aRLXO53Pt0N0Grx8BMlyellLOllE/pbiSldisUCp9O8qrIQqHwdgBnKSj1TwAHSSkfVlBrIBiGcXQLoxpJI86STZF6ve5IKX+hu48u+zaA59bwezLxs7eh+EXujQC8CsBmANbrcn8fNwzjV5OTk7d3+TjKjYyMHADgGypOtOv1+vsnJyfvVNPZwNjBMIxv1uv1AxuNxjLdzdArMTBf6UkAju4mXmJ/ALMU1Hmg0WjcqKBOvzu8Wq3+o91vLhQK2wOY06yj6BndK8S33hIVmIVCYS0AZUV3pc6dnJwc+Ek+bdo/l8vt2Wg07tPdCL0SA3MFUsqalLIvVuwZhrGVYRhnKyj1eynlQVxYsWbVavVhAA9ns9kLc7ncNtlsdk4ulzsYQEnRitCmUqFQeEO1Wv2donpdlc1mm1ffdyjY5q3pdinlpxTUGViGYXxASsnA7EN8htmnDMNYxzCM78Xb8XTqEinlkwrqpEaj0WiePP1xcnLyqmq1uieAQwGouk2WA/BpRbW6bnR09CwAuyko9YyU8gwpJW83rt7BhUJhK91N0CsxMPtUNps9GcDrFJRaODExcZOCOqlWrVbvlFJu2/zzVFTyYMMwXqOoVtcUCoV9AZyioNSklNKWUq5pv0la7gfZbDavuwl6OQZmHyoUCuvlcjkVm7Q+DmDvRqPxtIJaqSel/L2U8jAAKv481wbwNgV1uiaehXt3vKVZp86TUj6koE5aCL5m0n8YmH0mfnn53njFZkfq9fr51Wr1WTWdEZaH5uNSyrfHi8M6ks1m36KmK/UMw1jbMAxVz/KvnZiYUDJCL034mkn/YWD2mdHR0cMVrYp9pNFoXKmgDq0gfnew41WuuVzujWo6Us8wjC8DUDEUfLxarR7baDQ4nGD6tle06I8UYWD2EcMwNlX0UviElHIPKeWa3kekNkkpv6GgjIpVp8qNjIwcA+AoBaX+Ua/XVfw8p9n5hmG8QXcTtBwDs08YhjFkGMadihb6XC6l/JOCOrRqDyhYNatiBbRShUJhOJfLXaSg1NLmFerk5OTPFNRKs3UMw1Bx8kIKMDD7RDabbf6j2FVBqV9OTExcraAOrYaU8hkAne7d+GpF7ShhGIYA4MdTjzpSr9fPq1arP1XTWeodZ/BhZl9gYPaBQqEwlMvlPqGg1NMAZjcaDb5z2Rt/7vD71y8UCusr6qVjhmF8EsCbFJR6uNFo/D8FdWi5TQ3D+I7uJoiBqV02m10XwG3N3Oy0Vr1ev7harf5dTWfUgicU1NhUQY2OZLPZ5knbcQCOVFDuoXjA/1IFteg/djIMY47uJtKOgalZLpc7BMA8BaUajUbjYgV1qHX/UlBD+8vpuVyuCOAqFYPnpZRnSc5gXJWOnnkbhnGculaoHQxMjQzDWN8wjA8rKlfmtl09l/gRb4ZhbGQYhopFPk0L6vX6IkW1BtHjAOodfP/+hULhHQr7oWliYGpkGMZ1ALZTUOppKeVnFdSh6VGxFZi2kxzDMDKGYdwLYCcF5Z6VUp7B1y1XqxmWH+/g+9cBcL9hGGsp7ImmgYGpycjIyEEA3q2g1BSA3aWUUwpq0fRsrKCGttuX2Wz2HEUrsx+TUu4qpXxUQa2BJqX8PICfd1Aim81mj1fYEk0DA1OTXC73SUWlrqtWqz9WVIumZ6TD73+mWq1qOdEpFAqvzeVy5yoqd76Ukq+QtEBK+Xz8vLhtuVzuDHUd0XQwMHssm82uVSgUvgBgewXlJvpl7860yWazQwBe32GZxxW1My2GYbwRwIPN/xkKyl03MTFxjYI6qTExMXE7gE72Qn19oVBQsTkDTRMDs8dyudyeAE5WUCoCsI+UstN3AakNuVxuKwUv+GvZ6sowjPMVXB03PVitVo/hnNjpaTQa/wBwcPxvuF3nG4bBPTN7jIHZQ9lsNmMYxscUlbu6Wq0+rKgWTVM2m1UxIP8PCmpMy8jIyO4A9ldQ6pl6vX6mgjqpVK1WFwP4eic1stksb832GAOzh3K5XPPDahcFpSIp5XkK6lCbcrncwQrKdHJbri25XO5SACpWWa7HiVKdkVJ+sZPvz+VyJ3BiXm8xMHvEMIy1FF1d1gEcIKUMFdSiNhQKhb0AvLPTOlLKX6jpaM2y2exGhULhLgD/paqmYRiOqlppVK/XHwCwoIMS2XgGNfUIA7MHstnsBoZh3A+g2Gmter1+brVa/Zaazmi6RkZGDgHwbQULZmoAvqeorTVZe3R09BoA+ymue0KhUDhCcc3UaDQaz0spDwXQ9grjXC73GcMwNpjGt3DLvw4wMHtgdHS0+aEyW0GpiUaj8XkFdagN8asYVyv6d/MlKeU/FdRpxccAHNqFumsDuNEwDLMLtVNBShlJKb/cQYkRwzDuUNgSrQYDs8sMw9gEgIrFEX+VUs6Kt5WiHjIMY92RkZGzAPxCxdZXAP4hpRyYub+8NduZer3+NQCd7F+7h2EYu7X4ezkUvwMMzC56yabQnb6vh/iKpOeLRNKuUCjsaBjGH3O5XDPgpnPra3XulVKq2OmkX5xQKBS077qSAEMr+4+NRqMGoKOdSAzDeH+Lv/XZTo6TdgzMLoofyL9dQanfTExMXKmgDq2BYRibG4YxZ2Rk5JOFQmERgB8CGFV5jHq9foPKen0g1zwJyGazG+pupM+tcnVytVr9PYA7O6h9qGEYb23h9/EKswNr625gUBUKhaEOBy2/qAHgnY1GQ8tUmATap1AoPN3i7802MxLAVvHGybv0YH/K709OTg7iZsA7jo6OvqdarXbyPG7QrfZ1Hinl1YZhHNhm7fUMw2ie4G28ht3VeIXZAQZmF8SbQn8VwGsVlLu0Wq1yqHXrbtLdwGr8QUp5mO4muujUbDZ7XaPReF53I31qtYFZr9e/YxjGt5snfW3WH85ms0cDuG41v4drIDrAW7JdEL/UrmInEm7bNVguGLBnlyvaLpfLdfx+6gBbbWA2Go0IwAGdbEzewmB2nsx0gIGpmMJNoacA7CGl/IeCWqRX84PwiomJia/qbqTbDMPguLxVW+PnbbVafb5er3cyAWi7QqFwUgffT6vBwFTMMIwvA3iLglLXV6tVX0Ed0u+OarV6SqPRSMPtsDmFQqEb73wOgpY+bxuNRqc7EH3BMAyuWu4CBqZCIyMjBwJQ8YzqMSllWUEd0u/uiYmJ03Q30WNXG4bxOt1N9KGWPm/jsZcf7OA4Q9lslleZXcDAVEjRptARgHdx266BcEu1Wt2/0WhM6G6kRUsBfElBnbxhGCq2sBs0K30Pc2Wq1epFAH7T7oFyudyJ7X4vrRoDU4F4U+jLALTyHtSafLlarT6koA7p83cAH5+YmDhedyPTUa/XPyWlbAadikcBRxiG8QYFdQbJtD5v6/V6J7dmNy8UChd08P20EgxMBXK53BwApyootUxK+f8U1CF9/glgr2q1el6j0XhKdzPT8ONGo3F+PNv0CwrqbWIYxr2GYfDVtTY1Go1rO1kxC+BDPGlRi4HZoeYHgqJtuxoADpRSBgpqUe89Wq/XPyalNKvVatu7T2jyEynlHCnlC68c1Ov1OwD8QEHdQjabfZ+COoOi5VuyWP4sc2k8Mq/tHUZ4a1wtBmaHDMM4D8CuCkrNr1ardymoQ713CQBzcnKyeYU2pbuZ6ZJSOlLK2ov/f6PRqAPYF0CrE5NWKZfLcTD7f0wrMLH8WeYPOxyZd2yhUFi/g++nl2BgdmBkZGQ2gLMVlPonBxQkzkP1ev10KeVW1Wr17Gq1ukx3Q234F4Aj6vX6j1b8hWq12gz+qxUcY0ahULgkm81OOyxoOSnlNR18ezMsv5HNZtdR2FJqMTA7kMvlPqHoz/BIKeViBXWou5pXXl8AsHW1Wt1hcnLyMinlX3Q31YGrqtXqTY1GY6W/KKW8TNFxzszlcpaiWqkjpfwugEoHJfbM5XJ7KGwptfhAvg3ZbBajo6MfA9DqHnSrc3u1Wu3klgup83Tz8wnAkwAmAfy5Xq//udFoVAEsAbD4xed8A+BHExMTn1ndb5BS/skwjOMBfLHTE0PDMBwpJQdxtElKubdhGL9vd3MAwzBOlFLeo76zdGFgtiGXy+0CQMlqVq6KVW63eKVqK5bFIwj/AaBRrVZXfqk1eP7U/HNqZUh6tVq9ulAoHA7gHR0ec16hUNg1fiZH0ySl/IdhGFcD+GibJfYtFAq7SCk7WXWbegzMaTIMo/n1CQWllgI4RUr5KwW16D9+Va1WOX931aJ6vX7a5ORky1fK9Xr9slwu12lgNi0wDOO/pZRJGeTQV6SUNxiGcQ6Adp9Hfi2bzba60TStBJ9hTlO8THsvBaXurVarVymoQzQd901OTt49nW9oNBoLAPyvgmNvHt/ipTZIKX/XwRVm05a5XG6Qt5frOgbmNBiG8TYAn1NQ6rl6vX6+gjpE0/FXKeU50/0mKWXz65Dm9yvo4VjDMEYU1EklKeXFAB7uoMSeCttJHQZmiwzD2NAwjGsBrNthqRqA0uTkZCer3oim6+dSyjdJKZe0881SyqBer39cQR+jhmH8xDCMzRXUSp345KWTwexbKGwndRiYLTIM4yYA/6Wg1A3VavUV770RdZOU8izZ/LTtQKPRuB6AiklUwjCMYxXUSaX4NZOf6O4jjRiYLRgZGZkX74TeqaeklCpu6RJNx1fq9fpYp0XiUW3vilcWd+o4wzA2U1AnlaSUewL4m+4+0oaB2YJ4QIEKN0sp/6SoFlGrglUNJ5iuarX6awC3KihlGoahok4qSSn/oWgSE00DA3M14m27vgTgzQrK/T1+YE+UaFLKKwA8o6DUrJGRkYMU1EklKeUNAAZlkEYiMDBXI5fLvQuAqmXwB0kpH1FUi0ib+N1hV0UtDmdvX/yaySLdfaQJA3MVDMNYV9G2XU3XV6vVBxXVItIuvlui4t3MXQuFgoq9ZFMpvtqnHmFgroJhGBcC2FlFLY6/o0EjpXxe0Yd18zPoMm503B4p5Z0A/qi7j7RgYK7EyMjIHACnKyj1LIDDpJR/UFCLqK/U6/UFql5vMAyDt2bbJKUsTmN+MnWAgbkSuVxOxQvaTXdUq1WuBKSB1Gg0ngawT/P/VFDu/YVCYSsFdVJHShkA+IruPtKAgbmCkZGRWQDerqBUXUp5gYI6RH2rWq3+DUAnGxy/aB0A92SzWUNBrdSJV8xGuvsYdAzMFcTvXKrYHf54KWUnMx+JEkHhRtMzRkdHD1dUK1WklA/xKrP7uL1XLN4U+qMAigrKNc/0ziwUCmcqqNUNP6pWqyfrboIGg5TyEcMwzgBQVnCyebJhGNdJKZ9S1F5qSCmPNwxjFoDX6u5lUDEwY7lczgZwnqJyzSv37RXV6obHdDdAg6VarX6+UCi8B4DVYaltDcO4Ukp5pKLWUkNK2TxRv8YwDD4K6hLeklW7KTRRatXr9c8rKnXEyMjI7opqpUq9Xr9O0axfWgkG5vLAPBHA3rr7IEqyRqNxm6I9MzkBqE2NRuNxRRtF0EowMJcr626AKOmklMvq9frlisrNKRQK71ZUK1Wq1eo4gO/r7mMQMTCXW093A0SDoNFoXBkP7OjUOgBuNQxjREGt1JFSXq+7h0HEwCQiZeJNqg9SFJpD8epbmqZ6vX4rgJ/r7mPQMDCJSKlqtXoPgHsVlTu5UCgMK6qVGo1GYymAXQAs1d3LIGFgEpFy9Xpd1TCDDeIJQBsoqpca1Wr1GQA36O5jkDAwiUi5ycnJhQBUzVHeJZfLzVVUK1W4/ZdaDEwi6gop5QnNCx0VtQzDOD2bzfLzaprikXkMTUX4A0hEXSGlnKrX62crKvdWwzCOV1RLl2d0HLRarZ4CYJGOYw8aBiYRdU2j0bgDgK+i1gAMM5DaDszXTJRgYBJR10gpm1/zFM0vfn2hULiCt2anj6+ZqDG0bNky3T0QERH1PZ6pERERtYCBSURE1AIGJhERUQsYmERERC1gYBIREbWAgUlERNQCBiYREVELGJhEREQtYGASERG1gIFJRETUAgYmERFRCxiYRERELWBgEhERtYCBSURE1AIGJhERUQsYmERERC1gYBIREbWAgUlERNQCBiYREVEL/n8AAAD//5rF3yvd41HNAAAAAElFTkSuQmCC;fontStyle=1" parent="WIyWlLk6GJQsqaUBKTNV-1" vertex="1">
          <mxGeometry x="851.31" y="1244" width="44" height="44" as="geometry" />
        </mxCell>
        <mxCell id="e7wvYvKipk7kqhJiwFsk-0" value="PostgreSQL" style="text;html=1;align=center;verticalAlign=middle;resizable=0;points=[];autosize=1;strokeColor=none;fillColor=none;fontStyle=1" parent="WIyWlLk6GJQsqaUBKTNV-1" vertex="1">
          <mxGeometry x="1612" y="1025" width="83" height="26" as="geometry" />
        </mxCell>
        <mxCell id="e7wvYvKipk7kqhJiwFsk-1" value="PostgreSQL" style="text;html=1;align=center;verticalAlign=middle;resizable=0;points=[];autosize=1;strokeColor=none;fillColor=none;fontStyle=1" parent="WIyWlLk6GJQsqaUBKTNV-1" vertex="1">
          <mxGeometry x="1670.13" y="790" width="83" height="26" as="geometry" />
        </mxCell>
        <mxCell id="e7wvYvKipk7kqhJiwFsk-2" value="PostgreSQL" style="text;html=1;align=center;verticalAlign=middle;resizable=0;points=[];autosize=1;strokeColor=none;fillColor=none;fontStyle=1" parent="WIyWlLk6GJQsqaUBKTNV-1" vertex="1">
          <mxGeometry x="1613.16" y="1229.13" width="83" height="26" as="geometry" />
        </mxCell>
        <mxCell id="e7wvYvKipk7kqhJiwFsk-3" value="PostgreSQL" style="text;html=1;align=center;verticalAlign=middle;resizable=0;points=[];autosize=1;strokeColor=none;fillColor=none;fontStyle=1" parent="WIyWlLk6GJQsqaUBKTNV-1" vertex="1">
          <mxGeometry x="1037" y="715" width="83" height="26" as="geometry" />
        </mxCell>
        <mxCell id="e7wvYvKipk7kqhJiwFsk-4" value="PostgreSQL" style="text;html=1;align=center;verticalAlign=middle;resizable=0;points=[];autosize=1;strokeColor=none;fillColor=none;fontStyle=1" parent="WIyWlLk6GJQsqaUBKTNV-1" vertex="1">
          <mxGeometry x="2011.5" y="1151.0800000000002" width="83" height="26" as="geometry" />
        </mxCell>
        <mxCell id="gYE_DGQA4u42RacZ0zrg-0" value="&lt;b&gt;&lt;font style=&quot;font-size: 14px;&quot;&gt;Client&lt;/font&gt;&lt;/b&gt;" style="text;html=1;align=center;verticalAlign=middle;resizable=0;points=[];autosize=1;strokeColor=none;fillColor=none;" vertex="1" parent="WIyWlLk6GJQsqaUBKTNV-1">
          <mxGeometry x="521" y="1037" width="57" height="29" as="geometry" />
        </mxCell>
      </root>
    </mxGraphModel>
  </diagram>
</mxfile>
